ISO-10303-21;
HEADER;
FILE_DESCRIPTION(('FreeCAD Model'),'2;1');
FILE_NAME('Open CASCADE Shape Model','2026-08-30T19:29:20',(''),(''),
  'Open CASCADE STEP processor 7.8','FreeCAD','Unknown');
FILE_SCHEMA(('AUTOMOTIVE_DESIGN { 1 0 10303 214 1 1 1 1 }'));
ENDSEC;
DATA;
#1 = APPLICATION_PROTOCOL_DEFINITION('international standard',
  'automotive_design',2000,#2);
#2 = APPLICATION_CONTEXT(
  'core data for automotive mechanical design processes');
#3 = SHAPE_DEFINITION_REPRESENTATION(#4,#10);
#4 = PRODUCT_DEFINITION_SHAPE('','',#5);
#5 = PRODUCT_DEFINITION('design','',#6,#9);
#6 = PRODUCT_DEFINITION_FORMATION('','',#7);
#7 = PRODUCT('Circle','Circle','',(#8));
#8 = PRODUCT_CONTEXT('',#2,'mechanical');
#9 = PRODUCT_DEFINITION_CONTEXT('part definition',#2,'design');
#10 = SHAPE_REPRESENTATION('',(#11,#15,#107),#459);
#11 = AXIS2_PLACEMENT_3D('',#12,#13,#14);
#12 = CARTESIAN_POINT('',(0.,0.,0.));
#13 = DIRECTION('',(0.,0.,1.));
#14 = DIRECTION('',(1.,0.,-0.));
#15 = MANIFOLD_SOLID_BREP('',#16);
#16 = CLOSED_SHELL('',(#17,#50,#83,#95));
#17 = ADVANCED_FACE('',(#18),#45,.T.);
#18 = FACE_BOUND('',#19,.F.);
#19 = EDGE_LOOP('',(#20,#30,#37,#38));
#20 = ORIENTED_EDGE('',*,*,#21,.T.);
#21 = EDGE_CURVE('',#22,#24,#26,.T.);
#22 = VERTEX_POINT('',#23);
#23 = CARTESIAN_POINT('',(-5.,15.,-9.503189223154));
#24 = VERTEX_POINT('',#25);
#25 = CARTESIAN_POINT('',(-5.,21.,-9.503189223154));
#26 = LINE('',#27,#28);
#27 = CARTESIAN_POINT('',(-5.,15.,-9.503189223154));
#28 = VECTOR('',#29,1.);
#29 = DIRECTION('',(0.,1.,-2.2E-16));
#30 = ORIENTED_EDGE('',*,*,#31,.T.);
#31 = EDGE_CURVE('',#24,#24,#32,.T.);
#32 = CIRCLE('',#33,5.);
#33 = AXIS2_PLACEMENT_3D('',#34,#35,#36);
#34 = CARTESIAN_POINT('',(0.,21.,-9.503189223154));
#35 = DIRECTION('',(0.,1.,-0.));
#36 = DIRECTION('',(-1.,0.,0.));
#37 = ORIENTED_EDGE('',*,*,#21,.F.);
#38 = ORIENTED_EDGE('',*,*,#39,.F.);
#39 = EDGE_CURVE('',#22,#22,#40,.T.);
#40 = CIRCLE('',#41,5.);
#41 = AXIS2_PLACEMENT_3D('',#42,#43,#44);
#42 = CARTESIAN_POINT('',(0.,15.,-9.503189223154));
#43 = DIRECTION('',(0.,1.,-0.));
#44 = DIRECTION('',(-1.,0.,0.));
#45 = CYLINDRICAL_SURFACE('',#46,5.);
#46 = AXIS2_PLACEMENT_3D('',#47,#48,#49);
#47 = CARTESIAN_POINT('',(0.,15.,-9.503189223154));
#48 = DIRECTION('',(0.,-1.,2.2E-16));
#49 = DIRECTION('',(-1.,0.,0.));
#50 = ADVANCED_FACE('',(#51),#78,.F.);
#51 = FACE_BOUND('',#52,.T.);
#52 = EDGE_LOOP('',(#53,#63,#70,#71));
#53 = ORIENTED_EDGE('',*,*,#54,.T.);
#54 = EDGE_CURVE('',#55,#57,#59,.T.);
#55 = VERTEX_POINT('',#56);
#56 = CARTESIAN_POINT('',(-1.35,15.,-9.503189223154));
#57 = VERTEX_POINT('',#58);
#58 = CARTESIAN_POINT('',(-1.35,21.,-9.503189223154));
#59 = LINE('',#60,#61);
#60 = CARTESIAN_POINT('',(-1.35,15.,-9.503189223154));
#61 = VECTOR('',#62,1.);
#62 = DIRECTION('',(0.,1.,-2.2E-16));
#63 = ORIENTED_EDGE('',*,*,#64,.T.);
#64 = EDGE_CURVE('',#57,#57,#65,.T.);
#65 = CIRCLE('',#66,1.35);
#66 = AXIS2_PLACEMENT_3D('',#67,#68,#69);
#67 = CARTESIAN_POINT('',(0.,21.,-9.503189223154));
#68 = DIRECTION('',(0.,1.,-0.));
#69 = DIRECTION('',(-1.,0.,0.));
#70 = ORIENTED_EDGE('',*,*,#54,.F.);
#71 = ORIENTED_EDGE('',*,*,#72,.F.);
#72 = EDGE_CURVE('',#55,#55,#73,.T.);
#73 = CIRCLE('',#74,1.35);
#74 = AXIS2_PLACEMENT_3D('',#75,#76,#77);
#75 = CARTESIAN_POINT('',(0.,15.,-9.503189223154));
#76 = DIRECTION('',(0.,1.,-0.));
#77 = DIRECTION('',(-1.,0.,0.));
#78 = CYLINDRICAL_SURFACE('',#79,1.35);
#79 = AXIS2_PLACEMENT_3D('',#80,#81,#82);
#80 = CARTESIAN_POINT('',(0.,15.,-9.503189223154));
#81 = DIRECTION('',(0.,-1.,2.2E-16));
#82 = DIRECTION('',(-1.,0.,0.));
#83 = ADVANCED_FACE('',(#84,#87),#90,.F.);
#84 = FACE_BOUND('',#85,.F.);
#85 = EDGE_LOOP('',(#86));
#86 = ORIENTED_EDGE('',*,*,#39,.T.);
#87 = FACE_BOUND('',#88,.T.);
#88 = EDGE_LOOP('',(#89));
#89 = ORIENTED_EDGE('',*,*,#72,.T.);
#90 = PLANE('',#91);
#91 = AXIS2_PLACEMENT_3D('',#92,#93,#94);
#92 = CARTESIAN_POINT('',(2.2E-16,15.,-9.503189223154));
#93 = DIRECTION('',(0.,1.,0.));
#94 = DIRECTION('',(0.,0.,1.));
#95 = ADVANCED_FACE('',(#96,#99),#102,.T.);
#96 = FACE_BOUND('',#97,.T.);
#97 = EDGE_LOOP('',(#98));
#98 = ORIENTED_EDGE('',*,*,#31,.T.);
#99 = FACE_BOUND('',#100,.F.);
#100 = EDGE_LOOP('',(#101));
#101 = ORIENTED_EDGE('',*,*,#64,.T.);
#102 = PLANE('',#103);
#103 = AXIS2_PLACEMENT_3D('',#104,#105,#106);
#104 = CARTESIAN_POINT('',(2.2E-16,21.,-9.503189223154));
#105 = DIRECTION('',(0.,1.,0.));
#106 = DIRECTION('',(0.,0.,1.));
#107 = MANIFOLD_SOLID_BREP('',#108);
#108 = CLOSED_SHELL('',(#109,#149,#182,#213,#244,#275,#308,#339,#370,
    #401,#423,#441));
#109 = ADVANCED_FACE('',(#110),#144,.T.);
#110 = FACE_BOUND('',#111,.T.);
#111 = EDGE_LOOP('',(#112,#122,#130,#138));
#112 = ORIENTED_EDGE('',*,*,#113,.T.);
#113 = EDGE_CURVE('',#114,#116,#118,.T.);
#114 = VERTEX_POINT('',#115);
#115 = CARTESIAN_POINT('',(-9.,123.941257,1.368242));
#116 = VERTEX_POINT('',#117);
#117 = CARTESIAN_POINT('',(-24.,123.941257,1.368242));
#118 = LINE('',#119,#120);
#119 = CARTESIAN_POINT('',(-9.,123.941257,1.368242));
#120 = VECTOR('',#121,1.);
#121 = DIRECTION('',(-1.,0.,0.));
#122 = ORIENTED_EDGE('',*,*,#123,.T.);
#123 = EDGE_CURVE('',#116,#124,#126,.T.);
#124 = VERTEX_POINT('',#125);
#125 = CARTESIAN_POINT('',(-24.,123.941254,1.368241));
#126 = LINE('',#127,#128);
#127 = CARTESIAN_POINT('',(-24.,123.941257,1.368242));
#128 = VECTOR('',#129,1.);
#129 = DIRECTION('',(0.,-0.948683298205,-0.316227765553));
#130 = ORIENTED_EDGE('',*,*,#131,.F.);
#131 = EDGE_CURVE('',#132,#124,#134,.T.);
#132 = VERTEX_POINT('',#133);
#133 = CARTESIAN_POINT('',(-9.,123.941254,1.368241));
#134 = LINE('',#135,#136);
#135 = CARTESIAN_POINT('',(-9.,123.941254,1.368241));
#136 = VECTOR('',#137,1.);
#137 = DIRECTION('',(-1.,0.,0.));
#138 = ORIENTED_EDGE('',*,*,#139,.F.);
#139 = EDGE_CURVE('',#114,#132,#140,.T.);
#140 = LINE('',#141,#142);
#141 = CARTESIAN_POINT('',(-9.,123.941257,1.368242));
#142 = VECTOR('',#143,1.);
#143 = DIRECTION('',(0.,-0.948683298205,-0.316227765553));
#144 = PLANE('',#145);
#145 = AXIS2_PLACEMENT_3D('',#146,#147,#148);
#146 = CARTESIAN_POINT('',(-9.,123.941257,1.368242));
#147 = DIRECTION('',(0.,-0.316227765553,0.948683298205));
#148 = DIRECTION('',(0.,-0.948683298205,-0.316227765553));
#149 = ADVANCED_FACE('',(#150),#177,.F.);
#150 = FACE_BOUND('',#151,.T.);
#151 = EDGE_LOOP('',(#152,#153,#162,#170));
#152 = ORIENTED_EDGE('',*,*,#131,.T.);
#153 = ORIENTED_EDGE('',*,*,#154,.T.);
#154 = EDGE_CURVE('',#124,#155,#157,.T.);
#155 = VERTEX_POINT('',#156);
#156 = CARTESIAN_POINT('',(-24.,101.406233,-22.));
#157 = CIRCLE('',#158,22.955415519158);
#158 = AXIS2_PLACEMENT_3D('',#159,#160,#161);
#159 = CARTESIAN_POINT('',(-24.,100.98961918168,0.951634682166));
#160 = DIRECTION('',(-1.,0.,0.));
#161 = DIRECTION('',(0.,-1.,0.));
#162 = ORIENTED_EDGE('',*,*,#163,.F.);
#163 = EDGE_CURVE('',#164,#155,#166,.T.);
#164 = VERTEX_POINT('',#165);
#165 = CARTESIAN_POINT('',(-9.,101.406233,-22.));
#166 = LINE('',#167,#168);
#167 = CARTESIAN_POINT('',(-9.,101.406233,-22.));
#168 = VECTOR('',#169,1.);
#169 = DIRECTION('',(-1.,0.,0.));
#170 = ORIENTED_EDGE('',*,*,#171,.F.);
#171 = EDGE_CURVE('',#132,#164,#172,.T.);
#172 = CIRCLE('',#173,22.955415519158);
#173 = AXIS2_PLACEMENT_3D('',#174,#175,#176);
#174 = CARTESIAN_POINT('',(-9.,100.98961918168,0.951634682166));
#175 = DIRECTION('',(-1.,0.,0.));
#176 = DIRECTION('',(0.,-1.,0.));
#177 = CYLINDRICAL_SURFACE('',#178,22.955415519158);
#178 = AXIS2_PLACEMENT_3D('',#179,#180,#181);
#179 = CARTESIAN_POINT('',(-9.,100.98961918168,0.951634682166));
#180 = DIRECTION('',(1.,0.,0.));
#181 = DIRECTION('',(0.,-1.,0.));
#182 = ADVANCED_FACE('',(#183),#208,.T.);
#183 = FACE_BOUND('',#184,.T.);
#184 = EDGE_LOOP('',(#185,#186,#194,#202));
#185 = ORIENTED_EDGE('',*,*,#163,.T.);
#186 = ORIENTED_EDGE('',*,*,#187,.T.);
#187 = EDGE_CURVE('',#155,#188,#190,.T.);
#188 = VERTEX_POINT('',#189);
#189 = CARTESIAN_POINT('',(-24.,56.406233,-24.5));
#190 = LINE('',#191,#192);
#191 = CARTESIAN_POINT('',(-24.,101.406233,-22.));
#192 = VECTOR('',#193,1.);
#193 = DIRECTION('',(0.,-0.998460353205,-5.547001962252E-02));
#194 = ORIENTED_EDGE('',*,*,#195,.F.);
#195 = EDGE_CURVE('',#196,#188,#198,.T.);
#196 = VERTEX_POINT('',#197);
#197 = CARTESIAN_POINT('',(-9.,56.406233,-24.5));
#198 = LINE('',#199,#200);
#199 = CARTESIAN_POINT('',(-9.,56.406233,-24.5));
#200 = VECTOR('',#201,1.);
#201 = DIRECTION('',(-1.,0.,0.));
#202 = ORIENTED_EDGE('',*,*,#203,.F.);
#203 = EDGE_CURVE('',#164,#196,#204,.T.);
#204 = LINE('',#205,#206);
#205 = CARTESIAN_POINT('',(-9.,101.406233,-22.));
#206 = VECTOR('',#207,1.);
#207 = DIRECTION('',(0.,-0.998460353205,-5.547001962252E-02));
#208 = PLANE('',#209);
#209 = AXIS2_PLACEMENT_3D('',#210,#211,#212);
#210 = CARTESIAN_POINT('',(-9.,101.406233,-22.));
#211 = DIRECTION('',(0.,-5.547001962252E-02,0.998460353205));
#212 = DIRECTION('',(0.,-0.998460353205,-5.547001962252E-02));
#213 = ADVANCED_FACE('',(#214),#239,.F.);
#214 = FACE_BOUND('',#215,.F.);
#215 = EDGE_LOOP('',(#216,#226,#232,#233));
#216 = ORIENTED_EDGE('',*,*,#217,.T.);
#217 = EDGE_CURVE('',#218,#220,#222,.T.);
#218 = VERTEX_POINT('',#219);
#219 = CARTESIAN_POINT('',(-9.,56.406233,-27.));
#220 = VERTEX_POINT('',#221);
#221 = CARTESIAN_POINT('',(-24.,56.406233,-27.));
#222 = LINE('',#223,#224);
#223 = CARTESIAN_POINT('',(-9.,56.406233,-27.));
#224 = VECTOR('',#225,1.);
#225 = DIRECTION('',(-1.,0.,0.));
#226 = ORIENTED_EDGE('',*,*,#227,.T.);
#227 = EDGE_CURVE('',#220,#188,#228,.T.);
#228 = LINE('',#229,#230);
#229 = CARTESIAN_POINT('',(-24.,56.406233,-27.));
#230 = VECTOR('',#231,1.);
#231 = DIRECTION('',(0.,0.,1.));
#232 = ORIENTED_EDGE('',*,*,#195,.F.);
#233 = ORIENTED_EDGE('',*,*,#234,.F.);
#234 = EDGE_CURVE('',#218,#196,#235,.T.);
#235 = LINE('',#236,#237);
#236 = CARTESIAN_POINT('',(-9.,56.406233,-27.));
#237 = VECTOR('',#238,1.);
#238 = DIRECTION('',(0.,0.,1.));
#239 = PLANE('',#240);
#240 = AXIS2_PLACEMENT_3D('',#241,#242,#243);
#241 = CARTESIAN_POINT('',(-9.,56.406233,-27.));
#242 = DIRECTION('',(0.,1.,0.));
#243 = DIRECTION('',(0.,0.,1.));
#244 = ADVANCED_FACE('',(#245),#270,.F.);
#245 = FACE_BOUND('',#246,.F.);
#246 = EDGE_LOOP('',(#247,#257,#263,#264));
#247 = ORIENTED_EDGE('',*,*,#248,.T.);
#248 = EDGE_CURVE('',#249,#251,#253,.T.);
#249 = VERTEX_POINT('',#250);
#250 = CARTESIAN_POINT('',(-9.,101.406233,-27.));
#251 = VERTEX_POINT('',#252);
#252 = CARTESIAN_POINT('',(-24.,101.406233,-27.));
#253 = LINE('',#254,#255);
#254 = CARTESIAN_POINT('',(-9.,101.406233,-27.));
#255 = VECTOR('',#256,1.);
#256 = DIRECTION('',(-1.,0.,0.));
#257 = ORIENTED_EDGE('',*,*,#258,.T.);
#258 = EDGE_CURVE('',#251,#220,#259,.T.);
#259 = LINE('',#260,#261);
#260 = CARTESIAN_POINT('',(-24.,101.406233,-27.));
#261 = VECTOR('',#262,1.);
#262 = DIRECTION('',(0.,-1.,0.));
#263 = ORIENTED_EDGE('',*,*,#217,.F.);
#264 = ORIENTED_EDGE('',*,*,#265,.F.);
#265 = EDGE_CURVE('',#249,#218,#266,.T.);
#266 = LINE('',#267,#268);
#267 = CARTESIAN_POINT('',(-9.,101.406233,-27.));
#268 = VECTOR('',#269,1.);
#269 = DIRECTION('',(0.,-1.,0.));
#270 = PLANE('',#271);
#271 = AXIS2_PLACEMENT_3D('',#272,#273,#274);
#272 = CARTESIAN_POINT('',(-9.,101.406233,-27.));
#273 = DIRECTION('',(0.,0.,1.));
#274 = DIRECTION('',(0.,-1.,0.));
#275 = ADVANCED_FACE('',(#276),#303,.T.);
#276 = FACE_BOUND('',#277,.F.);
#277 = EDGE_LOOP('',(#278,#288,#295,#296));
#278 = ORIENTED_EDGE('',*,*,#279,.T.);
#279 = EDGE_CURVE('',#280,#282,#284,.T.);
#280 = VERTEX_POINT('',#281);
#281 = CARTESIAN_POINT('',(-9.,128.941254,1.368239366026));
#282 = VERTEX_POINT('',#283);
#283 = CARTESIAN_POINT('',(-24.,128.941254,1.368239366026));
#284 = LINE('',#285,#286);
#285 = CARTESIAN_POINT('',(-9.,128.941254,1.368239366026));
#286 = VECTOR('',#287,1.);
#287 = DIRECTION('',(-1.,0.,0.));
#288 = ORIENTED_EDGE('',*,*,#289,.T.);
#289 = EDGE_CURVE('',#282,#251,#290,.T.);
#290 = CIRCLE('',#291,27.954739284759);
#291 = AXIS2_PLACEMENT_3D('',#292,#293,#294);
#292 = CARTESIAN_POINT('',(-24.,100.98961918168,0.951634682166));
#293 = DIRECTION('',(-1.,0.,0.));
#294 = DIRECTION('',(0.,-1.,0.));
#295 = ORIENTED_EDGE('',*,*,#248,.F.);
#296 = ORIENTED_EDGE('',*,*,#297,.F.);
#297 = EDGE_CURVE('',#280,#249,#298,.T.);
#298 = CIRCLE('',#299,27.954739284759);
#299 = AXIS2_PLACEMENT_3D('',#300,#301,#302);
#300 = CARTESIAN_POINT('',(-9.,100.98961918168,0.951634682166));
#301 = DIRECTION('',(-1.,0.,0.));
#302 = DIRECTION('',(0.,-1.,0.));
#303 = CYLINDRICAL_SURFACE('',#304,27.954739284759);
#304 = AXIS2_PLACEMENT_3D('',#305,#306,#307);
#305 = CARTESIAN_POINT('',(-9.,100.98961918168,0.951634682166));
#306 = DIRECTION('',(1.,0.,0.));
#307 = DIRECTION('',(0.,-1.,0.));
#308 = ADVANCED_FACE('',(#309),#334,.T.);
#309 = FACE_BOUND('',#310,.T.);
#310 = EDGE_LOOP('',(#311,#312,#320,#328));
#311 = ORIENTED_EDGE('',*,*,#279,.T.);
#312 = ORIENTED_EDGE('',*,*,#313,.T.);
#313 = EDGE_CURVE('',#282,#314,#316,.T.);
#314 = VERTEX_POINT('',#315);
#315 = CARTESIAN_POINT('',(-24.,128.941257,1.368242));
#316 = LINE('',#317,#318);
#317 = CARTESIAN_POINT('',(-24.,128.941254,1.368239366026));
#318 = VECTOR('',#319,1.);
#319 = DIRECTION('',(0.,0.751461599402,0.659776829408));
#320 = ORIENTED_EDGE('',*,*,#321,.F.);
#321 = EDGE_CURVE('',#322,#314,#324,.T.);
#322 = VERTEX_POINT('',#323);
#323 = CARTESIAN_POINT('',(-9.,128.941257,1.368242));
#324 = LINE('',#325,#326);
#325 = CARTESIAN_POINT('',(-9.,128.941257,1.368242));
#326 = VECTOR('',#327,1.);
#327 = DIRECTION('',(-1.,0.,0.));
#328 = ORIENTED_EDGE('',*,*,#329,.F.);
#329 = EDGE_CURVE('',#280,#322,#330,.T.);
#330 = LINE('',#331,#332);
#331 = CARTESIAN_POINT('',(-9.,128.941254,1.368239366026));
#332 = VECTOR('',#333,1.);
#333 = DIRECTION('',(0.,0.751461599402,0.659776829408));
#334 = PLANE('',#335);
#335 = AXIS2_PLACEMENT_3D('',#336,#337,#338);
#336 = CARTESIAN_POINT('',(-9.,128.941254,1.368239366026));
#337 = DIRECTION('',(0.,0.659776829408,-0.751461599402));
#338 = DIRECTION('',(0.,0.751461599402,0.659776829408));
#339 = ADVANCED_FACE('',(#340),#365,.F.);
#340 = FACE_BOUND('',#341,.F.);
#341 = EDGE_LOOP('',(#342,#352,#358,#359));
#342 = ORIENTED_EDGE('',*,*,#343,.T.);
#343 = EDGE_CURVE('',#344,#346,#348,.T.);
#344 = VERTEX_POINT('',#345);
#345 = CARTESIAN_POINT('',(-9.,128.941257,39.368242));
#346 = VERTEX_POINT('',#347);
#347 = CARTESIAN_POINT('',(-24.,128.941257,39.368242));
#348 = LINE('',#349,#350);
#349 = CARTESIAN_POINT('',(-9.,128.941257,39.368242));
#350 = VECTOR('',#351,1.);
#351 = DIRECTION('',(-1.,0.,0.));
#352 = ORIENTED_EDGE('',*,*,#353,.T.);
#353 = EDGE_CURVE('',#346,#314,#354,.T.);
#354 = LINE('',#355,#356);
#355 = CARTESIAN_POINT('',(-24.,128.941257,39.368242));
#356 = VECTOR('',#357,1.);
#357 = DIRECTION('',(0.,0.,-1.));
#358 = ORIENTED_EDGE('',*,*,#321,.F.);
#359 = ORIENTED_EDGE('',*,*,#360,.F.);
#360 = EDGE_CURVE('',#344,#322,#361,.T.);
#361 = LINE('',#362,#363);
#362 = CARTESIAN_POINT('',(-9.,128.941257,39.368242));
#363 = VECTOR('',#364,1.);
#364 = DIRECTION('',(0.,0.,-1.));
#365 = PLANE('',#366);
#366 = AXIS2_PLACEMENT_3D('',#367,#368,#369);
#367 = CARTESIAN_POINT('',(-9.,128.941257,39.368242));
#368 = DIRECTION('',(-0.,-1.,-0.));
#369 = DIRECTION('',(0.,0.,-1.));
#370 = ADVANCED_FACE('',(#371),#396,.F.);
#371 = FACE_BOUND('',#372,.F.);
#372 = EDGE_LOOP('',(#373,#383,#389,#390));
#373 = ORIENTED_EDGE('',*,*,#374,.T.);
#374 = EDGE_CURVE('',#375,#377,#379,.T.);
#375 = VERTEX_POINT('',#376);
#376 = CARTESIAN_POINT('',(-9.,123.941257,39.368242));
#377 = VERTEX_POINT('',#378);
#378 = CARTESIAN_POINT('',(-24.,123.941257,39.368242));
#379 = LINE('',#380,#381);
#380 = CARTESIAN_POINT('',(-9.,123.941257,39.368242));
#381 = VECTOR('',#382,1.);
#382 = DIRECTION('',(-1.,0.,0.));
#383 = ORIENTED_EDGE('',*,*,#384,.T.);
#384 = EDGE_CURVE('',#377,#346,#385,.T.);
#385 = LINE('',#386,#387);
#386 = CARTESIAN_POINT('',(-24.,123.941257,39.368242));
#387 = VECTOR('',#388,1.);
#388 = DIRECTION('',(0.,1.,0.));
#389 = ORIENTED_EDGE('',*,*,#343,.F.);
#390 = ORIENTED_EDGE('',*,*,#391,.F.);
#391 = EDGE_CURVE('',#375,#344,#392,.T.);
#392 = LINE('',#393,#394);
#393 = CARTESIAN_POINT('',(-9.,123.941257,39.368242));
#394 = VECTOR('',#395,1.);
#395 = DIRECTION('',(0.,1.,0.));
#396 = PLANE('',#397);
#397 = AXIS2_PLACEMENT_3D('',#398,#399,#400);
#398 = CARTESIAN_POINT('',(-9.,123.941257,39.368242));
#399 = DIRECTION('',(0.,0.,-1.));
#400 = DIRECTION('',(0.,1.,0.));
#401 = ADVANCED_FACE('',(#402),#418,.F.);
#402 = FACE_BOUND('',#403,.F.);
#403 = EDGE_LOOP('',(#404,#405,#411,#412));
#404 = ORIENTED_EDGE('',*,*,#113,.T.);
#405 = ORIENTED_EDGE('',*,*,#406,.T.);
#406 = EDGE_CURVE('',#116,#377,#407,.T.);
#407 = LINE('',#408,#409);
#408 = CARTESIAN_POINT('',(-24.,123.941257,1.368242));
#409 = VECTOR('',#410,1.);
#410 = DIRECTION('',(0.,0.,1.));
#411 = ORIENTED_EDGE('',*,*,#374,.F.);
#412 = ORIENTED_EDGE('',*,*,#413,.F.);
#413 = EDGE_CURVE('',#114,#375,#414,.T.);
#414 = LINE('',#415,#416);
#415 = CARTESIAN_POINT('',(-9.,123.941257,1.368242));
#416 = VECTOR('',#417,1.);
#417 = DIRECTION('',(0.,0.,1.));
#418 = PLANE('',#419);
#419 = AXIS2_PLACEMENT_3D('',#420,#421,#422);
#420 = CARTESIAN_POINT('',(-9.,123.941257,1.368242));
#421 = DIRECTION('',(0.,1.,0.));
#422 = DIRECTION('',(0.,0.,1.));
#423 = ADVANCED_FACE('',(#424),#436,.T.);
#424 = FACE_BOUND('',#425,.T.);
#425 = EDGE_LOOP('',(#426,#427,#428,#429,#430,#431,#432,#433,#434,#435)
  );
#426 = ORIENTED_EDGE('',*,*,#139,.T.);
#427 = ORIENTED_EDGE('',*,*,#171,.T.);
#428 = ORIENTED_EDGE('',*,*,#203,.T.);
#429 = ORIENTED_EDGE('',*,*,#234,.F.);
#430 = ORIENTED_EDGE('',*,*,#265,.F.);
#431 = ORIENTED_EDGE('',*,*,#297,.F.);
#432 = ORIENTED_EDGE('',*,*,#329,.T.);
#433 = ORIENTED_EDGE('',*,*,#360,.F.);
#434 = ORIENTED_EDGE('',*,*,#391,.F.);
#435 = ORIENTED_EDGE('',*,*,#413,.F.);
#436 = PLANE('',#437);
#437 = AXIS2_PLACEMENT_3D('',#438,#439,#440);
#438 = CARTESIAN_POINT('',(-9.,105.91876088031,-6.928576561363));
#439 = DIRECTION('',(1.,0.,0.));
#440 = DIRECTION('',(0.,0.,1.));
#441 = ADVANCED_FACE('',(#442),#454,.F.);
#442 = FACE_BOUND('',#443,.F.);
#443 = EDGE_LOOP('',(#444,#445,#446,#447,#448,#449,#450,#451,#452,#453)
  );
#444 = ORIENTED_EDGE('',*,*,#123,.T.);
#445 = ORIENTED_EDGE('',*,*,#154,.T.);
#446 = ORIENTED_EDGE('',*,*,#187,.T.);
#447 = ORIENTED_EDGE('',*,*,#227,.F.);
#448 = ORIENTED_EDGE('',*,*,#258,.F.);
#449 = ORIENTED_EDGE('',*,*,#289,.F.);
#450 = ORIENTED_EDGE('',*,*,#313,.T.);
#451 = ORIENTED_EDGE('',*,*,#353,.F.);
#452 = ORIENTED_EDGE('',*,*,#384,.F.);
#453 = ORIENTED_EDGE('',*,*,#406,.F.);
#454 = PLANE('',#455);
#455 = AXIS2_PLACEMENT_3D('',#456,#457,#458);
#456 = CARTESIAN_POINT('',(-24.,105.91876088031,-6.928576561363));
#457 = DIRECTION('',(1.,0.,0.));
#458 = DIRECTION('',(0.,0.,1.));
#459 = ( GEOMETRIC_REPRESENTATION_CONTEXT(3) 
GLOBAL_UNCERTAINTY_ASSIGNED_CONTEXT((#463)) GLOBAL_UNIT_ASSIGNED_CONTEXT
((#460,#461,#462)) REPRESENTATION_CONTEXT('Context #1',
  '3D Context with UNIT and UNCERTAINTY') );
#460 = ( LENGTH_UNIT() NAMED_UNIT(*) SI_UNIT(.MILLI.,.METRE.) );
#461 = ( NAMED_UNIT(*) PLANE_ANGLE_UNIT() SI_UNIT($,.RADIAN.) );
#462 = ( NAMED_UNIT(*) SI_UNIT($,.STERADIAN.) SOLID_ANGLE_UNIT() );
#463 = UNCERTAINTY_MEASURE_WITH_UNIT(LENGTH_MEASURE(1.E-07),#460,
  'distance_accuracy_value','confusion accuracy');
#464 = PRODUCT_RELATED_PRODUCT_CATEGORY('part',$,(#7));
#465 = MECHANICAL_DESIGN_GEOMETRIC_PRESENTATION_REPRESENTATION('',(#466,
    #477),#459);
#466 = STYLED_ITEM('color',(#467),#15);
#467 = PRESENTATION_STYLE_ASSIGNMENT((#468,#474));
#468 = SURFACE_STYLE_USAGE(.BOTH.,#469);
#469 = SURFACE_SIDE_STYLE('',(#470));
#470 = SURFACE_STYLE_FILL_AREA(#471);
#471 = FILL_AREA_STYLE('',(#472));
#472 = FILL_AREA_STYLE_COLOUR('',#473);
#473 = COLOUR_RGB('',0.447058818107,0.474509808674,0.501960817233);
#474 = CURVE_STYLE('',#475,POSITIVE_LENGTH_MEASURE(0.1),#476);
#475 = DRAUGHTING_PRE_DEFINED_CURVE_FONT('continuous');
#476 = COLOUR_RGB('',9.803921802644E-02,9.803921802644E-02,
  9.803921802644E-02);
#477 = STYLED_ITEM('color',(#478),#107);
#478 = PRESENTATION_STYLE_ASSIGNMENT((#479,#484));
#479 = SURFACE_STYLE_USAGE(.BOTH.,#480);
#480 = SURFACE_SIDE_STYLE('',(#481));
#481 = SURFACE_STYLE_FILL_AREA(#482);
#482 = FILL_AREA_STYLE('',(#483));
#483 = FILL_AREA_STYLE_COLOUR('',#473);
#484 = CURVE_STYLE('',#485,POSITIVE_LENGTH_MEASURE(0.1),#476);
#485 = DRAUGHTING_PRE_DEFINED_CURVE_FONT('continuous');
ENDSEC;
END-ISO-10303-21;
