ISO-10303-21;
HEADER;
FILE_DESCRIPTION(('FreeCAD Model'),'2;1');
FILE_NAME('Open CASCADE Shape Model','2026-09-06T20:49:21',(''),(''),
  'Open CASCADE STEP processor 7.8','FreeCAD','Unknown');
FILE_SCHEMA(('AUTOMOTIVE_DESIGN { 1 0 10303 214 1 1 1 1 }'));
ENDSEC;
DATA;
#1 = APPLICATION_PROTOCOL_DEFINITION('international standard',
  'automotive_design',2000,#2);
#2 = APPLICATION_CONTEXT(
  'core data for automotive mechanical design processes');
#3 = SHAPE_DEFINITION_REPRESENTATION(#4,#10);
#4 = PRODUCT_DEFINITION_SHAPE('','',#5);
#5 = PRODUCT_DEFINITION('design','',#6,#9);
#6 = PRODUCT_DEFINITION_FORMATION('','',#7);
#7 = PRODUCT('Unnamed','Unnamed','',(#8));
#8 = PRODUCT_CONTEXT('',#2,'mechanical');
#9 = PRODUCT_DEFINITION_CONTEXT('part definition',#2,'design');
#10 = SHAPE_REPRESENTATION('',(#11,#15,#19,#23),#27);
#11 = AXIS2_PLACEMENT_3D('',#12,#13,#14);
#12 = CARTESIAN_POINT('',(0.,0.,0.));
#13 = DIRECTION('',(0.,0.,1.));
#14 = DIRECTION('',(1.,0.,-0.));
#15 = AXIS2_PLACEMENT_3D('',#16,#17,#18);
#16 = CARTESIAN_POINT('',(21.1,0.8,17.4));
#17 = DIRECTION('',(-1.,0.,-2.22044604925E-16));
#18 = DIRECTION('',(-2.22044604925E-16,0.,1.));
#19 = AXIS2_PLACEMENT_3D('',#20,#21,#22);
#20 = CARTESIAN_POINT('',(50.3,6.6,-52.5));
#21 = DIRECTION('',(0.,0.,1.));
#22 = DIRECTION('',(1.,0.,0.));
#23 = AXIS2_PLACEMENT_3D('',#24,#25,#26);
#24 = CARTESIAN_POINT('',(80.7,0.,0.));
#25 = DIRECTION('',(0.,0.,1.));
#26 = DIRECTION('',(1.,0.,0.));
#27 = ( GEOMETRIC_REPRESENTATION_CONTEXT(3) 
GLOBAL_UNCERTAINTY_ASSIGNED_CONTEXT((#31)) GLOBAL_UNIT_ASSIGNED_CONTEXT(
(#28,#29,#30)) REPRESENTATION_CONTEXT('Context #1',
  '3D Context with UNIT and UNCERTAINTY') );
#28 = ( LENGTH_UNIT() NAMED_UNIT(*) SI_UNIT(.MILLI.,.METRE.) );
#29 = ( NAMED_UNIT(*) PLANE_ANGLE_UNIT() SI_UNIT($,.RADIAN.) );
#30 = ( NAMED_UNIT(*) SI_UNIT($,.STERADIAN.) SOLID_ANGLE_UNIT() );
#31 = UNCERTAINTY_MEASURE_WITH_UNIT(LENGTH_MEASURE(2.E-07),#28,
  'distance_accuracy_value','confusion accuracy');
#32 = PRODUCT_RELATED_PRODUCT_CATEGORY('part',$,(#7));
#33 = SHAPE_DEFINITION_REPRESENTATION(#34,#40);
#34 = PRODUCT_DEFINITION_SHAPE('','',#35);
#35 = PRODUCT_DEFINITION('design','',#36,#39);
#36 = PRODUCT_DEFINITION_FORMATION('','',#37);
#37 = PRODUCT('solenoid connector','solenoid connector','',(#38));
#38 = PRODUCT_CONTEXT('',#2,'mechanical');
#39 = PRODUCT_DEFINITION_CONTEXT('part definition',#2,'design');
#40 = ADVANCED_BREP_SHAPE_REPRESENTATION('',(#11,#41),#403);
#41 = MANIFOLD_SOLID_BREP('',#42);
#42 = CLOSED_SHELL('',(#43,#83,#114,#145,#176,#207,#238,#271,#293,#326,
    #359,#381));
#43 = ADVANCED_FACE('',(#44),#78,.T.);
#44 = FACE_BOUND('',#45,.T.);
#45 = EDGE_LOOP('',(#46,#56,#64,#72));
#46 = ORIENTED_EDGE('',*,*,#47,.T.);
#47 = EDGE_CURVE('',#48,#50,#52,.T.);
#48 = VERTEX_POINT('',#49);
#49 = CARTESIAN_POINT('',(-4.,1.443289932013E-15,6.5));
#50 = VERTEX_POINT('',#51);
#51 = CARTESIAN_POINT('',(-4.,-1.5,6.5));
#52 = LINE('',#53,#54);
#53 = CARTESIAN_POINT('',(-4.,1.443289932013E-15,6.5));
#54 = VECTOR('',#55,1.);
#55 = DIRECTION('',(0.,-1.,2.22044604925E-16));
#56 = ORIENTED_EDGE('',*,*,#57,.T.);
#57 = EDGE_CURVE('',#50,#58,#60,.T.);
#58 = VERTEX_POINT('',#59);
#59 = CARTESIAN_POINT('',(-6.5,-1.5,6.5));
#60 = LINE('',#61,#62);
#61 = CARTESIAN_POINT('',(-4.,-1.5,6.5));
#62 = VECTOR('',#63,1.);
#63 = DIRECTION('',(-1.,0.,0.));
#64 = ORIENTED_EDGE('',*,*,#65,.F.);
#65 = EDGE_CURVE('',#66,#58,#68,.T.);
#66 = VERTEX_POINT('',#67);
#67 = CARTESIAN_POINT('',(-6.5,1.443289932013E-15,6.5));
#68 = LINE('',#69,#70);
#69 = CARTESIAN_POINT('',(-6.5,1.443289932013E-15,6.5));
#70 = VECTOR('',#71,1.);
#71 = DIRECTION('',(0.,-1.,2.22044604925E-16));
#72 = ORIENTED_EDGE('',*,*,#73,.F.);
#73 = EDGE_CURVE('',#48,#66,#74,.T.);
#74 = LINE('',#75,#76);
#75 = CARTESIAN_POINT('',(-4.,1.443289932013E-15,6.5));
#76 = VECTOR('',#77,1.);
#77 = DIRECTION('',(-1.,0.,0.));
#78 = PLANE('',#79);
#79 = AXIS2_PLACEMENT_3D('',#80,#81,#82);
#80 = CARTESIAN_POINT('',(-4.,1.443289932013E-15,6.5));
#81 = DIRECTION('',(-0.,-2.22044604925E-16,-1.));
#82 = DIRECTION('',(-1.,0.,0.));
#83 = ADVANCED_FACE('',(#84),#109,.F.);
#84 = FACE_BOUND('',#85,.F.);
#85 = EDGE_LOOP('',(#86,#87,#95,#103));
#86 = ORIENTED_EDGE('',*,*,#47,.T.);
#87 = ORIENTED_EDGE('',*,*,#88,.T.);
#88 = EDGE_CURVE('',#50,#89,#91,.T.);
#89 = VERTEX_POINT('',#90);
#90 = CARTESIAN_POINT('',(-4.,-1.5,3.330669073875E-16));
#91 = LINE('',#92,#93);
#92 = CARTESIAN_POINT('',(-4.,-1.5,6.5));
#93 = VECTOR('',#94,1.);
#94 = DIRECTION('',(0.,-2.22044604925E-16,-1.));
#95 = ORIENTED_EDGE('',*,*,#96,.F.);
#96 = EDGE_CURVE('',#97,#89,#99,.T.);
#97 = VERTEX_POINT('',#98);
#98 = CARTESIAN_POINT('',(-4.,0.,0.));
#99 = LINE('',#100,#101);
#100 = CARTESIAN_POINT('',(-4.,0.,0.));
#101 = VECTOR('',#102,1.);
#102 = DIRECTION('',(0.,-1.,2.22044604925E-16));
#103 = ORIENTED_EDGE('',*,*,#104,.F.);
#104 = EDGE_CURVE('',#48,#97,#105,.T.);
#105 = LINE('',#106,#107);
#106 = CARTESIAN_POINT('',(-4.,1.443289932013E-15,6.5));
#107 = VECTOR('',#108,1.);
#108 = DIRECTION('',(0.,-2.22044604925E-16,-1.));
#109 = PLANE('',#110);
#110 = AXIS2_PLACEMENT_3D('',#111,#112,#113);
#111 = CARTESIAN_POINT('',(-4.,1.443289932013E-15,6.5));
#112 = DIRECTION('',(1.,0.,0.));
#113 = DIRECTION('',(0.,-2.22044604925E-16,-1.));
#114 = ADVANCED_FACE('',(#115),#140,.F.);
#115 = FACE_BOUND('',#116,.F.);
#116 = EDGE_LOOP('',(#117,#118,#126,#134));
#117 = ORIENTED_EDGE('',*,*,#96,.T.);
#118 = ORIENTED_EDGE('',*,*,#119,.T.);
#119 = EDGE_CURVE('',#89,#120,#122,.T.);
#120 = VERTEX_POINT('',#121);
#121 = CARTESIAN_POINT('',(4.,-1.5,3.330669073875E-16));
#122 = LINE('',#123,#124);
#123 = CARTESIAN_POINT('',(-4.,-1.5,3.330669073875E-16));
#124 = VECTOR('',#125,1.);
#125 = DIRECTION('',(1.,0.,0.));
#126 = ORIENTED_EDGE('',*,*,#127,.F.);
#127 = EDGE_CURVE('',#128,#120,#130,.T.);
#128 = VERTEX_POINT('',#129);
#129 = CARTESIAN_POINT('',(4.,0.,0.));
#130 = LINE('',#131,#132);
#131 = CARTESIAN_POINT('',(4.,0.,0.));
#132 = VECTOR('',#133,1.);
#133 = DIRECTION('',(0.,-1.,2.22044604925E-16));
#134 = ORIENTED_EDGE('',*,*,#135,.F.);
#135 = EDGE_CURVE('',#97,#128,#136,.T.);
#136 = LINE('',#137,#138);
#137 = CARTESIAN_POINT('',(-4.,0.,0.));
#138 = VECTOR('',#139,1.);
#139 = DIRECTION('',(1.,0.,0.));
#140 = PLANE('',#141);
#141 = AXIS2_PLACEMENT_3D('',#142,#143,#144);
#142 = CARTESIAN_POINT('',(-4.,0.,0.));
#143 = DIRECTION('',(0.,2.22044604925E-16,1.));
#144 = DIRECTION('',(1.,0.,0.));
#145 = ADVANCED_FACE('',(#146),#171,.F.);
#146 = FACE_BOUND('',#147,.F.);
#147 = EDGE_LOOP('',(#148,#149,#157,#165));
#148 = ORIENTED_EDGE('',*,*,#127,.T.);
#149 = ORIENTED_EDGE('',*,*,#150,.T.);
#150 = EDGE_CURVE('',#120,#151,#153,.T.);
#151 = VERTEX_POINT('',#152);
#152 = CARTESIAN_POINT('',(4.,-1.5,6.5));
#153 = LINE('',#154,#155);
#154 = CARTESIAN_POINT('',(4.,-1.5,3.330669073875E-16));
#155 = VECTOR('',#156,1.);
#156 = DIRECTION('',(0.,2.22044604925E-16,1.));
#157 = ORIENTED_EDGE('',*,*,#158,.F.);
#158 = EDGE_CURVE('',#159,#151,#161,.T.);
#159 = VERTEX_POINT('',#160);
#160 = CARTESIAN_POINT('',(4.,1.443289932013E-15,6.5));
#161 = LINE('',#162,#163);
#162 = CARTESIAN_POINT('',(4.,1.443289932013E-15,6.5));
#163 = VECTOR('',#164,1.);
#164 = DIRECTION('',(0.,-1.,2.22044604925E-16));
#165 = ORIENTED_EDGE('',*,*,#166,.F.);
#166 = EDGE_CURVE('',#128,#159,#167,.T.);
#167 = LINE('',#168,#169);
#168 = CARTESIAN_POINT('',(4.,0.,0.));
#169 = VECTOR('',#170,1.);
#170 = DIRECTION('',(0.,2.22044604925E-16,1.));
#171 = PLANE('',#172);
#172 = AXIS2_PLACEMENT_3D('',#173,#174,#175);
#173 = CARTESIAN_POINT('',(4.,0.,0.));
#174 = DIRECTION('',(-1.,0.,0.));
#175 = DIRECTION('',(0.,2.22044604925E-16,1.));
#176 = ADVANCED_FACE('',(#177),#202,.F.);
#177 = FACE_BOUND('',#178,.F.);
#178 = EDGE_LOOP('',(#179,#180,#188,#196));
#179 = ORIENTED_EDGE('',*,*,#158,.T.);
#180 = ORIENTED_EDGE('',*,*,#181,.T.);
#181 = EDGE_CURVE('',#151,#182,#184,.T.);
#182 = VERTEX_POINT('',#183);
#183 = CARTESIAN_POINT('',(6.5,-1.5,6.5));
#184 = LINE('',#185,#186);
#185 = CARTESIAN_POINT('',(4.,-1.5,6.5));
#186 = VECTOR('',#187,1.);
#187 = DIRECTION('',(1.,0.,0.));
#188 = ORIENTED_EDGE('',*,*,#189,.F.);
#189 = EDGE_CURVE('',#190,#182,#192,.T.);
#190 = VERTEX_POINT('',#191);
#191 = CARTESIAN_POINT('',(6.5,1.443289932013E-15,6.5));
#192 = LINE('',#193,#194);
#193 = CARTESIAN_POINT('',(6.5,1.443289932013E-15,6.5));
#194 = VECTOR('',#195,1.);
#195 = DIRECTION('',(0.,-1.,2.22044604925E-16));
#196 = ORIENTED_EDGE('',*,*,#197,.F.);
#197 = EDGE_CURVE('',#159,#190,#198,.T.);
#198 = LINE('',#199,#200);
#199 = CARTESIAN_POINT('',(4.,1.443289932013E-15,6.5));
#200 = VECTOR('',#201,1.);
#201 = DIRECTION('',(1.,0.,0.));
#202 = PLANE('',#203);
#203 = AXIS2_PLACEMENT_3D('',#204,#205,#206);
#204 = CARTESIAN_POINT('',(4.,1.443289932013E-15,6.5));
#205 = DIRECTION('',(0.,2.22044604925E-16,1.));
#206 = DIRECTION('',(1.,0.,0.));
#207 = ADVANCED_FACE('',(#208),#233,.F.);
#208 = FACE_BOUND('',#209,.F.);
#209 = EDGE_LOOP('',(#210,#211,#219,#227));
#210 = ORIENTED_EDGE('',*,*,#189,.T.);
#211 = ORIENTED_EDGE('',*,*,#212,.T.);
#212 = EDGE_CURVE('',#182,#213,#215,.T.);
#213 = VERTEX_POINT('',#214);
#214 = CARTESIAN_POINT('',(1.851195529815,-1.5,16.469383982874));
#215 = LINE('',#216,#217);
#216 = CARTESIAN_POINT('',(6.5,-1.5,6.5));
#217 = VECTOR('',#218,1.);
#218 = DIRECTION('',(-0.422618588199,2.012407207112E-16,0.906307634807)
  );
#219 = ORIENTED_EDGE('',*,*,#220,.F.);
#220 = EDGE_CURVE('',#221,#213,#223,.T.);
#221 = VERTEX_POINT('',#222);
#222 = CARTESIAN_POINT('',(1.851195529815,3.656937859836E-15,
    16.469383982874));
#223 = LINE('',#224,#225);
#224 = CARTESIAN_POINT('',(1.851195529815,3.656937859836E-15,
    16.469383982874));
#225 = VECTOR('',#226,1.);
#226 = DIRECTION('',(0.,-1.,2.22044604925E-16));
#227 = ORIENTED_EDGE('',*,*,#228,.F.);
#228 = EDGE_CURVE('',#190,#221,#229,.T.);
#229 = LINE('',#230,#231);
#230 = CARTESIAN_POINT('',(6.5,1.443289932013E-15,6.5));
#231 = VECTOR('',#232,1.);
#232 = DIRECTION('',(-0.422618588199,2.012407207112E-16,0.906307634807)
  );
#233 = PLANE('',#234);
#234 = AXIS2_PLACEMENT_3D('',#235,#236,#237);
#235 = CARTESIAN_POINT('',(6.5,1.443289932013E-15,6.5));
#236 = DIRECTION('',(-0.906307634807,-9.384017745054E-17,-0.422618588199
    ));
#237 = DIRECTION('',(-0.422618588199,2.012407207112E-16,0.906307634807)
  );
#238 = ADVANCED_FACE('',(#239),#266,.T.);
#239 = FACE_BOUND('',#240,.F.);
#240 = EDGE_LOOP('',(#241,#242,#251,#259));
#241 = ORIENTED_EDGE('',*,*,#220,.T.);
#242 = ORIENTED_EDGE('',*,*,#243,.T.);
#243 = EDGE_CURVE('',#213,#244,#246,.T.);
#244 = VERTEX_POINT('',#245);
#245 = CARTESIAN_POINT('',(-1.851198983312,-1.5,16.469385593267));
#246 = CIRCLE('',#247,2.042569775392);
#247 = AXIS2_PLACEMENT_3D('',#248,#249,#250);
#248 = CARTESIAN_POINT('',(-2.102217138637E-06,-1.5,15.606158279767));
#249 = DIRECTION('',(0.,-1.,2.22044604925E-16));
#250 = DIRECTION('',(1.,0.,0.));
#251 = ORIENTED_EDGE('',*,*,#252,.F.);
#252 = EDGE_CURVE('',#253,#244,#255,.T.);
#253 = VERTEX_POINT('',#254);
#254 = CARTESIAN_POINT('',(-1.851198983312,3.656938217415E-15,
    16.469385593267));
#255 = LINE('',#256,#257);
#256 = CARTESIAN_POINT('',(-1.851198983312,3.656938217415E-15,
    16.469385593267));
#257 = VECTOR('',#258,1.);
#258 = DIRECTION('',(0.,-1.,2.22044604925E-16));
#259 = ORIENTED_EDGE('',*,*,#260,.F.);
#260 = EDGE_CURVE('',#221,#253,#261,.T.);
#261 = CIRCLE('',#262,2.042569775392);
#262 = AXIS2_PLACEMENT_3D('',#263,#264,#265);
#263 = CARTESIAN_POINT('',(-2.102217138637E-06,3.465263249628E-15,
    15.606158279767));
#264 = DIRECTION('',(0.,-1.,2.22044604925E-16));
#265 = DIRECTION('',(1.,0.,0.));
#266 = CYLINDRICAL_SURFACE('',#267,2.042569775392);
#267 = AXIS2_PLACEMENT_3D('',#268,#269,#270);
#268 = CARTESIAN_POINT('',(-2.102217138637E-06,3.465263249628E-15,
    15.606158279767));
#269 = DIRECTION('',(0.,1.,-2.22044604925E-16));
#270 = DIRECTION('',(1.,0.,0.));
#271 = ADVANCED_FACE('',(#272),#288,.T.);
#272 = FACE_BOUND('',#273,.T.);
#273 = EDGE_LOOP('',(#274,#275,#281,#282));
#274 = ORIENTED_EDGE('',*,*,#65,.T.);
#275 = ORIENTED_EDGE('',*,*,#276,.T.);
#276 = EDGE_CURVE('',#58,#244,#277,.T.);
#277 = LINE('',#278,#279);
#278 = CARTESIAN_POINT('',(-6.5,-1.5,6.5));
#279 = VECTOR('',#280,1.);
#280 = DIRECTION('',(0.422618274244,2.012407532184E-16,0.906307781206));
#281 = ORIENTED_EDGE('',*,*,#252,.F.);
#282 = ORIENTED_EDGE('',*,*,#283,.F.);
#283 = EDGE_CURVE('',#66,#253,#284,.T.);
#284 = LINE('',#285,#286);
#285 = CARTESIAN_POINT('',(-6.5,1.443289932013E-15,6.5));
#286 = VECTOR('',#287,1.);
#287 = DIRECTION('',(0.422618274244,2.012407532184E-16,0.906307781206));
#288 = PLANE('',#289);
#289 = AXIS2_PLACEMENT_3D('',#290,#291,#292);
#290 = CARTESIAN_POINT('',(-6.5,1.443289932013E-15,6.5));
#291 = DIRECTION('',(-0.906307781206,9.38401077387E-17,0.422618274244));
#292 = DIRECTION('',(0.422618274244,2.012407532184E-16,0.906307781206));
#293 = ADVANCED_FACE('',(#294),#321,.F.);
#294 = FACE_BOUND('',#295,.T.);
#295 = EDGE_LOOP('',(#296,#306,#313,#314));
#296 = ORIENTED_EDGE('',*,*,#297,.T.);
#297 = EDGE_CURVE('',#298,#300,#302,.T.);
#298 = VERTEX_POINT('',#299);
#299 = CARTESIAN_POINT('',(1.,6.661338147751E-16,3.));
#300 = VERTEX_POINT('',#301);
#301 = CARTESIAN_POINT('',(1.,-1.5,3.));
#302 = LINE('',#303,#304);
#303 = CARTESIAN_POINT('',(1.,6.661338147751E-16,3.));
#304 = VECTOR('',#305,1.);
#305 = DIRECTION('',(0.,-1.,2.22044604925E-16));
#306 = ORIENTED_EDGE('',*,*,#307,.T.);
#307 = EDGE_CURVE('',#300,#300,#308,.T.);
#308 = CIRCLE('',#309,1.);
#309 = AXIS2_PLACEMENT_3D('',#310,#311,#312);
#310 = CARTESIAN_POINT('',(0.,-1.5,3.));
#311 = DIRECTION('',(0.,-1.,2.22044604925E-16));
#312 = DIRECTION('',(1.,0.,0.));
#313 = ORIENTED_EDGE('',*,*,#297,.F.);
#314 = ORIENTED_EDGE('',*,*,#315,.F.);
#315 = EDGE_CURVE('',#298,#298,#316,.T.);
#316 = CIRCLE('',#317,1.);
#317 = AXIS2_PLACEMENT_3D('',#318,#319,#320);
#318 = CARTESIAN_POINT('',(0.,6.661338147751E-16,3.));
#319 = DIRECTION('',(0.,-1.,2.22044604925E-16));
#320 = DIRECTION('',(1.,0.,0.));
#321 = CYLINDRICAL_SURFACE('',#322,1.);
#322 = AXIS2_PLACEMENT_3D('',#323,#324,#325);
#323 = CARTESIAN_POINT('',(0.,6.661338147751E-16,3.));
#324 = DIRECTION('',(0.,1.,-2.22044604925E-16));
#325 = DIRECTION('',(1.,0.,0.));
#326 = ADVANCED_FACE('',(#327),#354,.F.);
#327 = FACE_BOUND('',#328,.T.);
#328 = EDGE_LOOP('',(#329,#339,#346,#347));
#329 = ORIENTED_EDGE('',*,*,#330,.T.);
#330 = EDGE_CURVE('',#331,#333,#335,.T.);
#331 = VERTEX_POINT('',#332);
#332 = CARTESIAN_POINT('',(1.,3.330669073875E-15,15.));
#333 = VERTEX_POINT('',#334);
#334 = CARTESIAN_POINT('',(1.,-1.5,15.));
#335 = LINE('',#336,#337);
#336 = CARTESIAN_POINT('',(1.,3.330669073875E-15,15.));
#337 = VECTOR('',#338,1.);
#338 = DIRECTION('',(0.,-1.,2.22044604925E-16));
#339 = ORIENTED_EDGE('',*,*,#340,.T.);
#340 = EDGE_CURVE('',#333,#333,#341,.T.);
#341 = CIRCLE('',#342,1.);
#342 = AXIS2_PLACEMENT_3D('',#343,#344,#345);
#343 = CARTESIAN_POINT('',(0.,-1.5,15.));
#344 = DIRECTION('',(0.,-1.,2.22044604925E-16));
#345 = DIRECTION('',(1.,0.,0.));
#346 = ORIENTED_EDGE('',*,*,#330,.F.);
#347 = ORIENTED_EDGE('',*,*,#348,.F.);
#348 = EDGE_CURVE('',#331,#331,#349,.T.);
#349 = CIRCLE('',#350,1.);
#350 = AXIS2_PLACEMENT_3D('',#351,#352,#353);
#351 = CARTESIAN_POINT('',(0.,3.330669073875E-15,15.));
#352 = DIRECTION('',(0.,-1.,2.22044604925E-16));
#353 = DIRECTION('',(1.,0.,0.));
#354 = CYLINDRICAL_SURFACE('',#355,1.);
#355 = AXIS2_PLACEMENT_3D('',#356,#357,#358);
#356 = CARTESIAN_POINT('',(0.,3.330669073875E-15,15.));
#357 = DIRECTION('',(0.,1.,-2.22044604925E-16));
#358 = DIRECTION('',(1.,0.,0.));
#359 = ADVANCED_FACE('',(#360,#370,#373),#376,.T.);
#360 = FACE_BOUND('',#361,.F.);
#361 = EDGE_LOOP('',(#362,#363,#364,#365,#366,#367,#368,#369));
#362 = ORIENTED_EDGE('',*,*,#73,.F.);
#363 = ORIENTED_EDGE('',*,*,#104,.T.);
#364 = ORIENTED_EDGE('',*,*,#135,.T.);
#365 = ORIENTED_EDGE('',*,*,#166,.T.);
#366 = ORIENTED_EDGE('',*,*,#197,.T.);
#367 = ORIENTED_EDGE('',*,*,#228,.T.);
#368 = ORIENTED_EDGE('',*,*,#260,.T.);
#369 = ORIENTED_EDGE('',*,*,#283,.F.);
#370 = FACE_BOUND('',#371,.T.);
#371 = EDGE_LOOP('',(#372));
#372 = ORIENTED_EDGE('',*,*,#315,.T.);
#373 = FACE_BOUND('',#374,.T.);
#374 = EDGE_LOOP('',(#375));
#375 = ORIENTED_EDGE('',*,*,#348,.T.);
#376 = PLANE('',#377);
#377 = AXIS2_PLACEMENT_3D('',#378,#379,#380);
#378 = CARTESIAN_POINT('',(-4.044904192851E-07,1.759592639781E-15,
    7.92450075684));
#379 = DIRECTION('',(0.,1.,0.));
#380 = DIRECTION('',(0.,0.,1.));
#381 = ADVANCED_FACE('',(#382,#392,#395),#398,.F.);
#382 = FACE_BOUND('',#383,.T.);
#383 = EDGE_LOOP('',(#384,#385,#386,#387,#388,#389,#390,#391));
#384 = ORIENTED_EDGE('',*,*,#57,.F.);
#385 = ORIENTED_EDGE('',*,*,#88,.T.);
#386 = ORIENTED_EDGE('',*,*,#119,.T.);
#387 = ORIENTED_EDGE('',*,*,#150,.T.);
#388 = ORIENTED_EDGE('',*,*,#181,.T.);
#389 = ORIENTED_EDGE('',*,*,#212,.T.);
#390 = ORIENTED_EDGE('',*,*,#243,.T.);
#391 = ORIENTED_EDGE('',*,*,#276,.F.);
#392 = FACE_BOUND('',#393,.F.);
#393 = EDGE_LOOP('',(#394));
#394 = ORIENTED_EDGE('',*,*,#307,.T.);
#395 = FACE_BOUND('',#396,.F.);
#396 = EDGE_LOOP('',(#397));
#397 = ORIENTED_EDGE('',*,*,#340,.T.);
#398 = PLANE('',#399);
#399 = AXIS2_PLACEMENT_3D('',#400,#401,#402);
#400 = CARTESIAN_POINT('',(-4.044904192851E-07,-1.5,7.92450075684));
#401 = DIRECTION('',(0.,1.,0.));
#402 = DIRECTION('',(0.,0.,1.));
#403 = ( GEOMETRIC_REPRESENTATION_CONTEXT(3) 
GLOBAL_UNCERTAINTY_ASSIGNED_CONTEXT((#407)) GLOBAL_UNIT_ASSIGNED_CONTEXT
((#404,#405,#406)) REPRESENTATION_CONTEXT('Context #1',
  '3D Context with UNIT and UNCERTAINTY') );
#404 = ( LENGTH_UNIT() NAMED_UNIT(*) SI_UNIT(.MILLI.,.METRE.) );
#405 = ( NAMED_UNIT(*) PLANE_ANGLE_UNIT() SI_UNIT($,.RADIAN.) );
#406 = ( NAMED_UNIT(*) SI_UNIT($,.STERADIAN.) SOLID_ANGLE_UNIT() );
#407 = UNCERTAINTY_MEASURE_WITH_UNIT(LENGTH_MEASURE(1.E-07),#404,
  'distance_accuracy_value','confusion accuracy');
#408 = CONTEXT_DEPENDENT_SHAPE_REPRESENTATION(#409,#411);
#409 = ( REPRESENTATION_RELATIONSHIP('','',#40,#10) 
REPRESENTATION_RELATIONSHIP_WITH_TRANSFORMATION(#410) 
SHAPE_REPRESENTATION_RELATIONSHIP() );
#410 = ITEM_DEFINED_TRANSFORMATION('','',#11,#15);
#411 = PRODUCT_DEFINITION_SHAPE('Placement','Placement of an item',#412
  );
#412 = NEXT_ASSEMBLY_USAGE_OCCURRENCE('4','solenoid connector','',#5,#35
  ,$);
#413 = PRODUCT_RELATED_PRODUCT_CATEGORY('part',$,(#37));
#414 = SHAPE_DEFINITION_REPRESENTATION(#415,#421);
#415 = PRODUCT_DEFINITION_SHAPE('','',#416);
#416 = PRODUCT_DEFINITION('design','',#417,#420);
#417 = PRODUCT_DEFINITION_FORMATION('','',#418);
#418 = PRODUCT('flipper connector','flipper connector','',(#419));
#419 = PRODUCT_CONTEXT('',#2,'mechanical');
#420 = PRODUCT_DEFINITION_CONTEXT('part definition',#2,'design');
#421 = ADVANCED_BREP_SHAPE_REPRESENTATION('',(#11,#422),#867);
#422 = MANIFOLD_SOLID_BREP('',#423);
#423 = CLOSED_SHELL('',(#424,#464,#515,#548,#603,#669,#686,#703,#717,
    #742,#767,#792,#821,#830,#850));
#424 = ADVANCED_FACE('',(#425),#459,.F.);
#425 = FACE_BOUND('',#426,.F.);
#426 = EDGE_LOOP('',(#427,#437,#445,#453));
#427 = ORIENTED_EDGE('',*,*,#428,.T.);
#428 = EDGE_CURVE('',#429,#431,#433,.T.);
#429 = VERTEX_POINT('',#430);
#430 = CARTESIAN_POINT('',(-5.,2.6645352591E-15,12.));
#431 = VERTEX_POINT('',#432);
#432 = CARTESIAN_POINT('',(-5.,-3.,12.));
#433 = LINE('',#434,#435);
#434 = CARTESIAN_POINT('',(-5.,2.6645352591E-15,12.));
#435 = VECTOR('',#436,1.);
#436 = DIRECTION('',(0.,-1.,2.22044604925E-16));
#437 = ORIENTED_EDGE('',*,*,#438,.T.);
#438 = EDGE_CURVE('',#431,#439,#441,.T.);
#439 = VERTEX_POINT('',#440);
#440 = CARTESIAN_POINT('',(-5.,-3.,9.722955144374E-16));
#441 = LINE('',#442,#443);
#442 = CARTESIAN_POINT('',(-5.,-3.,12.));
#443 = VECTOR('',#444,1.);
#444 = DIRECTION('',(0.,-2.22044604925E-16,-1.));
#445 = ORIENTED_EDGE('',*,*,#446,.F.);
#446 = EDGE_CURVE('',#447,#439,#449,.T.);
#447 = VERTEX_POINT('',#448);
#448 = CARTESIAN_POINT('',(-5.,6.798155364469E-32,3.061616996623E-16));
#449 = LINE('',#450,#451);
#450 = CARTESIAN_POINT('',(-5.,6.798155364469E-32,3.061616996623E-16));
#451 = VECTOR('',#452,1.);
#452 = DIRECTION('',(0.,-1.,2.22044604925E-16));
#453 = ORIENTED_EDGE('',*,*,#454,.F.);
#454 = EDGE_CURVE('',#429,#447,#455,.T.);
#455 = LINE('',#456,#457);
#456 = CARTESIAN_POINT('',(-5.,2.6645352591E-15,12.));
#457 = VECTOR('',#458,1.);
#458 = DIRECTION('',(0.,-2.22044604925E-16,-1.));
#459 = PLANE('',#460);
#460 = AXIS2_PLACEMENT_3D('',#461,#462,#463);
#461 = CARTESIAN_POINT('',(-5.,2.6645352591E-15,12.));
#462 = DIRECTION('',(1.,0.,0.));
#463 = DIRECTION('',(0.,-2.22044604925E-16,-1.));
#464 = ADVANCED_FACE('',(#465),#510,.T.);
#465 = FACE_BOUND('',#466,.F.);
#466 = EDGE_LOOP('',(#467,#468,#477,#486,#494,#503));
#467 = ORIENTED_EDGE('',*,*,#428,.F.);
#468 = ORIENTED_EDGE('',*,*,#469,.F.);
#469 = EDGE_CURVE('',#470,#429,#472,.T.);
#470 = VERTEX_POINT('',#471);
#471 = CARTESIAN_POINT('',(-15.,4.884981308351E-15,22.));
#472 = CIRCLE('',#473,10.);
#473 = AXIS2_PLACEMENT_3D('',#474,#475,#476);
#474 = CARTESIAN_POINT('',(-5.,4.884981308351E-15,22.));
#475 = DIRECTION('',(0.,-1.,2.22044604925E-16));
#476 = DIRECTION('',(1.,0.,0.));
#477 = ORIENTED_EDGE('',*,*,#478,.F.);
#478 = EDGE_CURVE('',#479,#470,#481,.T.);
#479 = VERTEX_POINT('',#480);
#480 = CARTESIAN_POINT('',(-5.,7.105427357601E-15,32.));
#481 = CIRCLE('',#482,10.);
#482 = AXIS2_PLACEMENT_3D('',#483,#484,#485);
#483 = CARTESIAN_POINT('',(-5.,4.884981308351E-15,22.));
#484 = DIRECTION('',(0.,-1.,2.22044604925E-16));
#485 = DIRECTION('',(1.,0.,0.));
#486 = ORIENTED_EDGE('',*,*,#487,.T.);
#487 = EDGE_CURVE('',#479,#488,#490,.T.);
#488 = VERTEX_POINT('',#489);
#489 = CARTESIAN_POINT('',(-5.,-3.,32.));
#490 = LINE('',#491,#492);
#491 = CARTESIAN_POINT('',(-5.,7.105427357601E-15,32.));
#492 = VECTOR('',#493,1.);
#493 = DIRECTION('',(0.,-1.,2.22044604925E-16));
#494 = ORIENTED_EDGE('',*,*,#495,.T.);
#495 = EDGE_CURVE('',#488,#496,#498,.T.);
#496 = VERTEX_POINT('',#497);
#497 = CARTESIAN_POINT('',(-15.,-3.,22.));
#498 = CIRCLE('',#499,10.);
#499 = AXIS2_PLACEMENT_3D('',#500,#501,#502);
#500 = CARTESIAN_POINT('',(-5.,-3.,22.));
#501 = DIRECTION('',(0.,-1.,2.22044604925E-16));
#502 = DIRECTION('',(1.,0.,0.));
#503 = ORIENTED_EDGE('',*,*,#504,.T.);
#504 = EDGE_CURVE('',#496,#431,#505,.T.);
#505 = CIRCLE('',#506,10.);
#506 = AXIS2_PLACEMENT_3D('',#507,#508,#509);
#507 = CARTESIAN_POINT('',(-5.,-3.,22.));
#508 = DIRECTION('',(0.,-1.,2.22044604925E-16));
#509 = DIRECTION('',(1.,0.,0.));
#510 = CYLINDRICAL_SURFACE('',#511,10.);
#511 = AXIS2_PLACEMENT_3D('',#512,#513,#514);
#512 = CARTESIAN_POINT('',(-5.,4.884981308351E-15,22.));
#513 = DIRECTION('',(0.,1.,-2.22044604925E-16));
#514 = DIRECTION('',(1.,0.,0.));
#515 = ADVANCED_FACE('',(#516),#543,.T.);
#516 = FACE_BOUND('',#517,.F.);
#517 = EDGE_LOOP('',(#518,#519,#528,#536));
#518 = ORIENTED_EDGE('',*,*,#446,.T.);
#519 = ORIENTED_EDGE('',*,*,#520,.T.);
#520 = EDGE_CURVE('',#439,#521,#523,.T.);
#521 = VERTEX_POINT('',#522);
#522 = CARTESIAN_POINT('',(5.,-3.,-8.34368005431E-16));
#523 = CIRCLE('',#524,5.);
#524 = AXIS2_PLACEMENT_3D('',#525,#526,#527);
#525 = CARTESIAN_POINT('',(-3.476279586856E-16,-3.,6.661338147751E-16));
#526 = DIRECTION('',(0.,-1.,2.22044604925E-16));
#527 = DIRECTION('',(1.,0.,0.));
#528 = ORIENTED_EDGE('',*,*,#529,.F.);
#529 = EDGE_CURVE('',#530,#521,#532,.T.);
#530 = VERTEX_POINT('',#531);
#531 = CARTESIAN_POINT('',(5.,-3.33178333857E-31,-1.500501820206E-15));
#532 = LINE('',#533,#534);
#533 = CARTESIAN_POINT('',(5.,-3.33178333857E-31,-1.500501820206E-15));
#534 = VECTOR('',#535,1.);
#535 = DIRECTION('',(0.,-1.,2.22044604925E-16));
#536 = ORIENTED_EDGE('',*,*,#537,.F.);
#537 = EDGE_CURVE('',#447,#530,#538,.T.);
#538 = CIRCLE('',#539,5.);
#539 = AXIS2_PLACEMENT_3D('',#540,#541,#542);
#540 = CARTESIAN_POINT('',(-3.476279586856E-16,0.,0.));
#541 = DIRECTION('',(0.,-1.,2.22044604925E-16));
#542 = DIRECTION('',(1.,0.,0.));
#543 = CYLINDRICAL_SURFACE('',#544,5.);
#544 = AXIS2_PLACEMENT_3D('',#545,#546,#547);
#545 = CARTESIAN_POINT('',(-3.476279586856E-16,0.,0.));
#546 = DIRECTION('',(0.,1.,-2.22044604925E-16));
#547 = DIRECTION('',(1.,0.,0.));
#548 = ADVANCED_FACE('',(#549,#587),#598,.T.);
#549 = FACE_BOUND('',#550,.T.);
#550 = EDGE_LOOP('',(#551,#552,#560,#569,#578,#584,#585,#586));
#551 = ORIENTED_EDGE('',*,*,#478,.F.);
#552 = ORIENTED_EDGE('',*,*,#553,.T.);
#553 = EDGE_CURVE('',#479,#554,#556,.T.);
#554 = VERTEX_POINT('',#555);
#555 = CARTESIAN_POINT('',(5.,7.105427357601E-15,32.));
#556 = LINE('',#557,#558);
#557 = CARTESIAN_POINT('',(-5.,7.105427357601E-15,32.));
#558 = VECTOR('',#559,1.);
#559 = DIRECTION('',(1.,0.,0.));
#560 = ORIENTED_EDGE('',*,*,#561,.F.);
#561 = EDGE_CURVE('',#562,#554,#564,.T.);
#562 = VERTEX_POINT('',#563);
#563 = CARTESIAN_POINT('',(15.,4.884981308351E-15,22.));
#564 = CIRCLE('',#565,10.);
#565 = AXIS2_PLACEMENT_3D('',#566,#567,#568);
#566 = CARTESIAN_POINT('',(5.,4.884981308351E-15,22.));
#567 = DIRECTION('',(0.,-1.,2.22044604925E-16));
#568 = DIRECTION('',(1.,0.,0.));
#569 = ORIENTED_EDGE('',*,*,#570,.F.);
#570 = EDGE_CURVE('',#571,#562,#573,.T.);
#571 = VERTEX_POINT('',#572);
#572 = CARTESIAN_POINT('',(5.,2.6645352591E-15,12.));
#573 = CIRCLE('',#574,10.);
#574 = AXIS2_PLACEMENT_3D('',#575,#576,#577);
#575 = CARTESIAN_POINT('',(5.,4.884981308351E-15,22.));
#576 = DIRECTION('',(0.,-1.,2.22044604925E-16));
#577 = DIRECTION('',(1.,0.,0.));
#578 = ORIENTED_EDGE('',*,*,#579,.T.);
#579 = EDGE_CURVE('',#571,#530,#580,.T.);
#580 = LINE('',#581,#582);
#581 = CARTESIAN_POINT('',(5.,2.6645352591E-15,12.));
#582 = VECTOR('',#583,1.);
#583 = DIRECTION('',(0.,-2.22044604925E-16,-1.));
#584 = ORIENTED_EDGE('',*,*,#537,.F.);
#585 = ORIENTED_EDGE('',*,*,#454,.F.);
#586 = ORIENTED_EDGE('',*,*,#469,.F.);
#587 = FACE_BOUND('',#588,.T.);
#588 = EDGE_LOOP('',(#589));
#589 = ORIENTED_EDGE('',*,*,#590,.F.);
#590 = EDGE_CURVE('',#591,#591,#593,.T.);
#591 = VERTEX_POINT('',#592);
#592 = CARTESIAN_POINT('',(-8.,8.705389019768E-15,22.));
#593 = CIRCLE('',#594,8.);
#594 = AXIS2_PLACEMENT_3D('',#595,#596,#597);
#595 = CARTESIAN_POINT('',(0.,8.705389019768E-15,22.));
#596 = DIRECTION('',(0.,1.,-2.22044604925E-16));
#597 = DIRECTION('',(-1.,0.,0.));
#598 = PLANE('',#599);
#599 = AXIS2_PLACEMENT_3D('',#600,#601,#602);
#600 = CARTESIAN_POINT('',(-8.551555955747E-16,3.820407711418E-15,
    17.205586745544));
#601 = DIRECTION('',(0.,1.,0.));
#602 = DIRECTION('',(0.,0.,1.));
#603 = ADVANCED_FACE('',(#604,#642,#653),#664,.F.);
#604 = FACE_BOUND('',#605,.F.);
#605 = EDGE_LOOP('',(#606,#607,#615,#624,#633,#639,#640,#641));
#606 = ORIENTED_EDGE('',*,*,#495,.F.);
#607 = ORIENTED_EDGE('',*,*,#608,.T.);
#608 = EDGE_CURVE('',#488,#609,#611,.T.);
#609 = VERTEX_POINT('',#610);
#610 = CARTESIAN_POINT('',(5.,-3.,32.));
#611 = LINE('',#612,#613);
#612 = CARTESIAN_POINT('',(-5.,-3.,32.));
#613 = VECTOR('',#614,1.);
#614 = DIRECTION('',(1.,0.,0.));
#615 = ORIENTED_EDGE('',*,*,#616,.F.);
#616 = EDGE_CURVE('',#617,#609,#619,.T.);
#617 = VERTEX_POINT('',#618);
#618 = CARTESIAN_POINT('',(15.,-3.,22.));
#619 = CIRCLE('',#620,10.);
#620 = AXIS2_PLACEMENT_3D('',#621,#622,#623);
#621 = CARTESIAN_POINT('',(5.,-3.,22.));
#622 = DIRECTION('',(0.,-1.,2.22044604925E-16));
#623 = DIRECTION('',(1.,0.,0.));
#624 = ORIENTED_EDGE('',*,*,#625,.F.);
#625 = EDGE_CURVE('',#626,#617,#628,.T.);
#626 = VERTEX_POINT('',#627);
#627 = CARTESIAN_POINT('',(5.,-3.,12.));
#628 = CIRCLE('',#629,10.);
#629 = AXIS2_PLACEMENT_3D('',#630,#631,#632);
#630 = CARTESIAN_POINT('',(5.,-3.,22.));
#631 = DIRECTION('',(0.,-1.,2.22044604925E-16));
#632 = DIRECTION('',(1.,0.,0.));
#633 = ORIENTED_EDGE('',*,*,#634,.T.);
#634 = EDGE_CURVE('',#626,#521,#635,.T.);
#635 = LINE('',#636,#637);
#636 = CARTESIAN_POINT('',(5.,-3.,12.));
#637 = VECTOR('',#638,1.);
#638 = DIRECTION('',(0.,-2.22044604925E-16,-1.));
#639 = ORIENTED_EDGE('',*,*,#520,.F.);
#640 = ORIENTED_EDGE('',*,*,#438,.F.);
#641 = ORIENTED_EDGE('',*,*,#504,.F.);
#642 = FACE_BOUND('',#643,.F.);
#643 = EDGE_LOOP('',(#644));
#644 = ORIENTED_EDGE('',*,*,#645,.T.);
#645 = EDGE_CURVE('',#646,#646,#648,.T.);
#646 = VERTEX_POINT('',#647);
#647 = CARTESIAN_POINT('',(0.95,-3.,0.));
#648 = CIRCLE('',#649,0.95);
#649 = AXIS2_PLACEMENT_3D('',#650,#651,#652);
#650 = CARTESIAN_POINT('',(0.,-3.,0.));
#651 = DIRECTION('',(0.,-1.,2.22044604925E-16));
#652 = DIRECTION('',(1.,0.,0.));
#653 = FACE_BOUND('',#654,.F.);
#654 = EDGE_LOOP('',(#655));
#655 = ORIENTED_EDGE('',*,*,#656,.T.);
#656 = EDGE_CURVE('',#657,#657,#659,.T.);
#657 = VERTEX_POINT('',#658);
#658 = CARTESIAN_POINT('',(7.,-3.,22.));
#659 = CIRCLE('',#660,7.);
#660 = AXIS2_PLACEMENT_3D('',#661,#662,#663);
#661 = CARTESIAN_POINT('',(0.,-3.,22.));
#662 = DIRECTION('',(0.,-1.,2.22044604925E-16));
#663 = DIRECTION('',(1.,0.,0.));
#664 = PLANE('',#665);
#665 = AXIS2_PLACEMENT_3D('',#666,#667,#668);
#666 = CARTESIAN_POINT('',(-8.551555955747E-16,-3.,17.205586745544));
#667 = DIRECTION('',(0.,1.,0.));
#668 = DIRECTION('',(0.,0.,1.));
#669 = ADVANCED_FACE('',(#670),#681,.T.);
#670 = FACE_BOUND('',#671,.T.);
#671 = EDGE_LOOP('',(#672,#673,#674,#680));
#672 = ORIENTED_EDGE('',*,*,#487,.T.);
#673 = ORIENTED_EDGE('',*,*,#608,.T.);
#674 = ORIENTED_EDGE('',*,*,#675,.F.);
#675 = EDGE_CURVE('',#554,#609,#676,.T.);
#676 = LINE('',#677,#678);
#677 = CARTESIAN_POINT('',(5.,7.105427357601E-15,32.));
#678 = VECTOR('',#679,1.);
#679 = DIRECTION('',(0.,-1.,2.22044604925E-16));
#680 = ORIENTED_EDGE('',*,*,#553,.F.);
#681 = PLANE('',#682);
#682 = AXIS2_PLACEMENT_3D('',#683,#684,#685);
#683 = CARTESIAN_POINT('',(-5.,7.105427357601E-15,32.));
#684 = DIRECTION('',(0.,2.22044604925E-16,1.));
#685 = DIRECTION('',(1.,0.,0.));
#686 = ADVANCED_FACE('',(#687),#698,.T.);
#687 = FACE_BOUND('',#688,.T.);
#688 = EDGE_LOOP('',(#689,#695,#696,#697));
#689 = ORIENTED_EDGE('',*,*,#690,.T.);
#690 = EDGE_CURVE('',#571,#626,#691,.T.);
#691 = LINE('',#692,#693);
#692 = CARTESIAN_POINT('',(5.,2.6645352591E-15,12.));
#693 = VECTOR('',#694,1.);
#694 = DIRECTION('',(0.,-1.,2.22044604925E-16));
#695 = ORIENTED_EDGE('',*,*,#634,.T.);
#696 = ORIENTED_EDGE('',*,*,#529,.F.);
#697 = ORIENTED_EDGE('',*,*,#579,.F.);
#698 = PLANE('',#699);
#699 = AXIS2_PLACEMENT_3D('',#700,#701,#702);
#700 = CARTESIAN_POINT('',(5.,2.6645352591E-15,12.));
#701 = DIRECTION('',(1.,0.,0.));
#702 = DIRECTION('',(0.,-2.22044604925E-16,-1.));
#703 = ADVANCED_FACE('',(#704),#712,.T.);
#704 = FACE_BOUND('',#705,.F.);
#705 = EDGE_LOOP('',(#706,#707,#708,#709,#710,#711));
#706 = ORIENTED_EDGE('',*,*,#675,.F.);
#707 = ORIENTED_EDGE('',*,*,#561,.F.);
#708 = ORIENTED_EDGE('',*,*,#570,.F.);
#709 = ORIENTED_EDGE('',*,*,#690,.T.);
#710 = ORIENTED_EDGE('',*,*,#625,.T.);
#711 = ORIENTED_EDGE('',*,*,#616,.T.);
#712 = CYLINDRICAL_SURFACE('',#713,10.);
#713 = AXIS2_PLACEMENT_3D('',#714,#715,#716);
#714 = CARTESIAN_POINT('',(5.,4.884981308351E-15,22.));
#715 = DIRECTION('',(0.,1.,-2.22044604925E-16));
#716 = DIRECTION('',(1.,0.,0.));
#717 = ADVANCED_FACE('',(#718),#737,.T.);
#718 = FACE_BOUND('',#719,.F.);
#719 = EDGE_LOOP('',(#720,#728,#735,#736));
#720 = ORIENTED_EDGE('',*,*,#721,.T.);
#721 = EDGE_CURVE('',#591,#722,#724,.T.);
#722 = VERTEX_POINT('',#723);
#723 = CARTESIAN_POINT('',(-8.,10.,22.));
#724 = LINE('',#725,#726);
#725 = CARTESIAN_POINT('',(-8.,8.705389019768E-15,22.));
#726 = VECTOR('',#727,1.);
#727 = DIRECTION('',(0.,1.,-2.22044604925E-16));
#728 = ORIENTED_EDGE('',*,*,#729,.T.);
#729 = EDGE_CURVE('',#722,#722,#730,.T.);
#730 = CIRCLE('',#731,8.);
#731 = AXIS2_PLACEMENT_3D('',#732,#733,#734);
#732 = CARTESIAN_POINT('',(0.,10.,22.));
#733 = DIRECTION('',(0.,1.,-2.22044604925E-16));
#734 = DIRECTION('',(-1.,0.,0.));
#735 = ORIENTED_EDGE('',*,*,#721,.F.);
#736 = ORIENTED_EDGE('',*,*,#590,.F.);
#737 = CYLINDRICAL_SURFACE('',#738,8.);
#738 = AXIS2_PLACEMENT_3D('',#739,#740,#741);
#739 = CARTESIAN_POINT('',(0.,8.705389019768E-15,22.));
#740 = DIRECTION('',(0.,-1.,2.22044604925E-16));
#741 = DIRECTION('',(-1.,0.,0.));
#742 = ADVANCED_FACE('',(#743),#762,.T.);
#743 = FACE_BOUND('',#744,.F.);
#744 = EDGE_LOOP('',(#745,#753,#760,#761));
#745 = ORIENTED_EDGE('',*,*,#746,.T.);
#746 = EDGE_CURVE('',#646,#747,#749,.T.);
#747 = VERTEX_POINT('',#748);
#748 = CARTESIAN_POINT('',(0.95,-11.,1.7763568394E-15));
#749 = LINE('',#750,#751);
#750 = CARTESIAN_POINT('',(0.95,-3.,0.));
#751 = VECTOR('',#752,1.);
#752 = DIRECTION('',(0.,-1.,2.22044604925E-16));
#753 = ORIENTED_EDGE('',*,*,#754,.T.);
#754 = EDGE_CURVE('',#747,#747,#755,.T.);
#755 = CIRCLE('',#756,0.95);
#756 = AXIS2_PLACEMENT_3D('',#757,#758,#759);
#757 = CARTESIAN_POINT('',(0.,-11.,1.7763568394E-15));
#758 = DIRECTION('',(0.,-1.,2.22044604925E-16));
#759 = DIRECTION('',(1.,0.,0.));
#760 = ORIENTED_EDGE('',*,*,#746,.F.);
#761 = ORIENTED_EDGE('',*,*,#645,.F.);
#762 = CYLINDRICAL_SURFACE('',#763,0.95);
#763 = AXIS2_PLACEMENT_3D('',#764,#765,#766);
#764 = CARTESIAN_POINT('',(0.,-3.,0.));
#765 = DIRECTION('',(0.,1.,-2.22044604925E-16));
#766 = DIRECTION('',(1.,0.,0.));
#767 = ADVANCED_FACE('',(#768),#787,.T.);
#768 = FACE_BOUND('',#769,.F.);
#769 = EDGE_LOOP('',(#770,#778,#785,#786));
#770 = ORIENTED_EDGE('',*,*,#771,.T.);
#771 = EDGE_CURVE('',#657,#772,#774,.T.);
#772 = VERTEX_POINT('',#773);
#773 = CARTESIAN_POINT('',(7.,-13.,22.));
#774 = LINE('',#775,#776);
#775 = CARTESIAN_POINT('',(7.,-3.,22.));
#776 = VECTOR('',#777,1.);
#777 = DIRECTION('',(0.,-1.,2.22044604925E-16));
#778 = ORIENTED_EDGE('',*,*,#779,.T.);
#779 = EDGE_CURVE('',#772,#772,#780,.T.);
#780 = CIRCLE('',#781,7.);
#781 = AXIS2_PLACEMENT_3D('',#782,#783,#784);
#782 = CARTESIAN_POINT('',(0.,-13.,22.));
#783 = DIRECTION('',(0.,-1.,2.22044604925E-16));
#784 = DIRECTION('',(1.,0.,0.));
#785 = ORIENTED_EDGE('',*,*,#771,.F.);
#786 = ORIENTED_EDGE('',*,*,#656,.F.);
#787 = CYLINDRICAL_SURFACE('',#788,7.);
#788 = AXIS2_PLACEMENT_3D('',#789,#790,#791);
#789 = CARTESIAN_POINT('',(0.,-3.,22.));
#790 = DIRECTION('',(0.,1.,-2.22044604925E-16));
#791 = DIRECTION('',(1.,0.,0.));
#792 = ADVANCED_FACE('',(#793,#796),#816,.T.);
#793 = FACE_BOUND('',#794,.T.);
#794 = EDGE_LOOP('',(#795));
#795 = ORIENTED_EDGE('',*,*,#729,.T.);
#796 = FACE_BOUND('',#797,.F.);
#797 = EDGE_LOOP('',(#798,#809));
#798 = ORIENTED_EDGE('',*,*,#799,.T.);
#799 = EDGE_CURVE('',#800,#802,#804,.T.);
#800 = VERTEX_POINT('',#801);
#801 = CARTESIAN_POINT('',(-5.,10.,22.));
#802 = VERTEX_POINT('',#803);
#803 = CARTESIAN_POINT('',(5.,10.,22.));
#804 = CIRCLE('',#805,5.);
#805 = AXIS2_PLACEMENT_3D('',#806,#807,#808);
#806 = CARTESIAN_POINT('',(0.,10.,22.));
#807 = DIRECTION('',(0.,1.,-2.22044604925E-16));
#808 = DIRECTION('',(-1.,0.,0.));
#809 = ORIENTED_EDGE('',*,*,#810,.T.);
#810 = EDGE_CURVE('',#802,#800,#811,.T.);
#811 = CIRCLE('',#812,5.);
#812 = AXIS2_PLACEMENT_3D('',#813,#814,#815);
#813 = CARTESIAN_POINT('',(0.,10.,22.));
#814 = DIRECTION('',(0.,1.,-2.22044604925E-16));
#815 = DIRECTION('',(-1.,0.,0.));
#816 = PLANE('',#817);
#817 = AXIS2_PLACEMENT_3D('',#818,#819,#820);
#818 = CARTESIAN_POINT('',(4.207508100121E-16,10.,22.));
#819 = DIRECTION('',(0.,1.,-2.22044604925E-16));
#820 = DIRECTION('',(0.,2.22044604925E-16,1.));
#821 = ADVANCED_FACE('',(#822),#825,.F.);
#822 = FACE_BOUND('',#823,.T.);
#823 = EDGE_LOOP('',(#824));
#824 = ORIENTED_EDGE('',*,*,#754,.T.);
#825 = PLANE('',#826);
#826 = AXIS2_PLACEMENT_3D('',#827,#828,#829);
#827 = CARTESIAN_POINT('',(-8.996316661444E-17,-11.,1.782557940734E-15)
  );
#828 = DIRECTION('',(0.,1.,0.));
#829 = DIRECTION('',(0.,0.,1.));
#830 = ADVANCED_FACE('',(#831,#834),#845,.F.);
#831 = FACE_BOUND('',#832,.T.);
#832 = EDGE_LOOP('',(#833));
#833 = ORIENTED_EDGE('',*,*,#779,.T.);
#834 = FACE_BOUND('',#835,.F.);
#835 = EDGE_LOOP('',(#836));
#836 = ORIENTED_EDGE('',*,*,#837,.T.);
#837 = EDGE_CURVE('',#838,#838,#840,.T.);
#838 = VERTEX_POINT('',#839);
#839 = CARTESIAN_POINT('',(5.,-13.,22.));
#840 = CIRCLE('',#841,5.);
#841 = AXIS2_PLACEMENT_3D('',#842,#843,#844);
#842 = CARTESIAN_POINT('',(0.,-13.,22.));
#843 = DIRECTION('',(0.,-1.,2.22044604925E-16));
#844 = DIRECTION('',(1.,0.,0.));
#845 = PLANE('',#846);
#846 = AXIS2_PLACEMENT_3D('',#847,#848,#849);
#847 = CARTESIAN_POINT('',(-4.558133775131E-16,-13.,22.));
#848 = DIRECTION('',(0.,1.,0.));
#849 = DIRECTION('',(0.,0.,1.));
#850 = ADVANCED_FACE('',(#851),#862,.F.);
#851 = FACE_BOUND('',#852,.T.);
#852 = EDGE_LOOP('',(#853,#854,#859,#860,#861));
#853 = ORIENTED_EDGE('',*,*,#799,.T.);
#854 = ORIENTED_EDGE('',*,*,#855,.F.);
#855 = EDGE_CURVE('',#838,#802,#856,.T.);
#856 = B_SPLINE_CURVE_WITH_KNOTS('',1,(#857,#858),.UNSPECIFIED.,.F.,.F.,
  (2,2),(-13.,10.),.PIECEWISE_BEZIER_KNOTS.);
#857 = CARTESIAN_POINT('',(5.,-13.,22.));
#858 = CARTESIAN_POINT('',(5.,10.,22.));
#859 = ORIENTED_EDGE('',*,*,#837,.T.);
#860 = ORIENTED_EDGE('',*,*,#855,.T.);
#861 = ORIENTED_EDGE('',*,*,#810,.T.);
#862 = CYLINDRICAL_SURFACE('',#863,5.);
#863 = AXIS2_PLACEMENT_3D('',#864,#865,#866);
#864 = CARTESIAN_POINT('',(0.,4.884981308351E-15,22.));
#865 = DIRECTION('',(0.,1.,-2.22044604925E-16));
#866 = DIRECTION('',(1.,0.,0.));
#867 = ( GEOMETRIC_REPRESENTATION_CONTEXT(3) 
GLOBAL_UNCERTAINTY_ASSIGNED_CONTEXT((#871)) GLOBAL_UNIT_ASSIGNED_CONTEXT
((#868,#869,#870)) REPRESENTATION_CONTEXT('Context #1',
  '3D Context with UNIT and UNCERTAINTY') );
#868 = ( LENGTH_UNIT() NAMED_UNIT(*) SI_UNIT(.MILLI.,.METRE.) );
#869 = ( NAMED_UNIT(*) PLANE_ANGLE_UNIT() SI_UNIT($,.RADIAN.) );
#870 = ( NAMED_UNIT(*) SI_UNIT($,.STERADIAN.) SOLID_ANGLE_UNIT() );
#871 = UNCERTAINTY_MEASURE_WITH_UNIT(LENGTH_MEASURE(1.E-06),#868,
  'distance_accuracy_value','confusion accuracy');
#872 = CONTEXT_DEPENDENT_SHAPE_REPRESENTATION(#873,#875);
#873 = ( REPRESENTATION_RELATIONSHIP('','',#421,#10) 
REPRESENTATION_RELATIONSHIP_WITH_TRANSFORMATION(#874) 
SHAPE_REPRESENTATION_RELATIONSHIP() );
#874 = ITEM_DEFINED_TRANSFORMATION('','',#11,#19);
#875 = PRODUCT_DEFINITION_SHAPE('Placement','Placement of an item',#876
  );
#876 = NEXT_ASSEMBLY_USAGE_OCCURRENCE('5','flipper connector','',#5,#416
  ,$);
#877 = PRODUCT_RELATED_PRODUCT_CATEGORY('part',$,(#418));
#878 = SHAPE_DEFINITION_REPRESENTATION(#879,#885);
#879 = PRODUCT_DEFINITION_SHAPE('','',#880);
#880 = PRODUCT_DEFINITION('design','',#881,#884);
#881 = PRODUCT_DEFINITION_FORMATION('','',#882);
#882 = PRODUCT('flipper base','flipper base','',(#883));
#883 = PRODUCT_CONTEXT('',#2,'mechanical');
#884 = PRODUCT_DEFINITION_CONTEXT('part definition',#2,'design');
#885 = ADVANCED_BREP_SHAPE_REPRESENTATION('',(#11,#886),#1318);
#886 = MANIFOLD_SOLID_BREP('',#887);
#887 = CLOSED_SHELL('',(#888,#928,#991,#1038,#1077,#1116,#1133,#1177,
    #1201,#1236,#1255,#1272,#1289,#1301));
#888 = ADVANCED_FACE('',(#889),#923,.F.);
#889 = FACE_BOUND('',#890,.F.);
#890 = EDGE_LOOP('',(#891,#901,#909,#917));
#891 = ORIENTED_EDGE('',*,*,#892,.T.);
#892 = EDGE_CURVE('',#893,#895,#897,.T.);
#893 = VERTEX_POINT('',#894);
#894 = CARTESIAN_POINT('',(30.,7.75,-6.5));
#895 = VERTEX_POINT('',#896);
#896 = CARTESIAN_POINT('',(30.,11.75,-6.5));
#897 = LINE('',#898,#899);
#898 = CARTESIAN_POINT('',(30.,7.75,-6.5));
#899 = VECTOR('',#900,1.);
#900 = DIRECTION('',(0.,1.,-2.22044604925E-16));
#901 = ORIENTED_EDGE('',*,*,#902,.T.);
#902 = EDGE_CURVE('',#895,#903,#905,.T.);
#903 = VERTEX_POINT('',#904);
#904 = CARTESIAN_POINT('',(0.,11.75,-6.5));
#905 = LINE('',#906,#907);
#906 = CARTESIAN_POINT('',(30.,11.75,-6.5));
#907 = VECTOR('',#908,1.);
#908 = DIRECTION('',(-1.,0.,0.));
#909 = ORIENTED_EDGE('',*,*,#910,.F.);
#910 = EDGE_CURVE('',#911,#903,#913,.T.);
#911 = VERTEX_POINT('',#912);
#912 = CARTESIAN_POINT('',(0.,7.75,-6.5));
#913 = LINE('',#914,#915);
#914 = CARTESIAN_POINT('',(0.,7.75,-6.5));
#915 = VECTOR('',#916,1.);
#916 = DIRECTION('',(0.,1.,-2.22044604925E-16));
#917 = ORIENTED_EDGE('',*,*,#918,.F.);
#918 = EDGE_CURVE('',#893,#911,#919,.T.);
#919 = LINE('',#920,#921);
#920 = CARTESIAN_POINT('',(30.,7.75,-6.5));
#921 = VECTOR('',#922,1.);
#922 = DIRECTION('',(-1.,0.,0.));
#923 = PLANE('',#924);
#924 = AXIS2_PLACEMENT_3D('',#925,#926,#927);
#925 = CARTESIAN_POINT('',(30.,7.75,-6.5));
#926 = DIRECTION('',(0.,2.22044604925E-16,1.));
#927 = DIRECTION('',(-1.,0.,0.));
#928 = ADVANCED_FACE('',(#929),#986,.T.);
#929 = FACE_BOUND('',#930,.T.);
#930 = EDGE_LOOP('',(#931,#941,#949,#957,#965,#973,#979,#980));
#931 = ORIENTED_EDGE('',*,*,#932,.F.);
#932 = EDGE_CURVE('',#933,#935,#937,.T.);
#933 = VERTEX_POINT('',#934);
#934 = CARTESIAN_POINT('',(30.,0.,13.5));
#935 = VERTEX_POINT('',#936);
#936 = CARTESIAN_POINT('',(30.,11.75,13.5));
#937 = LINE('',#938,#939);
#938 = CARTESIAN_POINT('',(30.,7.75,13.5));
#939 = VECTOR('',#940,1.);
#940 = DIRECTION('',(0.,1.,-2.22044604925E-16));
#941 = ORIENTED_EDGE('',*,*,#942,.T.);
#942 = EDGE_CURVE('',#933,#943,#945,.T.);
#943 = VERTEX_POINT('',#944);
#944 = CARTESIAN_POINT('',(30.,0.,33.5));
#945 = LINE('',#946,#947);
#946 = CARTESIAN_POINT('',(30.,0.,13.5));
#947 = VECTOR('',#948,1.);
#948 = DIRECTION('',(0.,0.,1.));
#949 = ORIENTED_EDGE('',*,*,#950,.F.);
#950 = EDGE_CURVE('',#951,#943,#953,.T.);
#951 = VERTEX_POINT('',#952);
#952 = CARTESIAN_POINT('',(30.,-8.25,33.5));
#953 = LINE('',#954,#955);
#954 = CARTESIAN_POINT('',(30.,-8.25,33.5));
#955 = VECTOR('',#956,1.);
#956 = DIRECTION('',(0.,1.,0.));
#957 = ORIENTED_EDGE('',*,*,#958,.F.);
#958 = EDGE_CURVE('',#959,#951,#961,.T.);
#959 = VERTEX_POINT('',#960);
#960 = CARTESIAN_POINT('',(30.,-8.25,8.5));
#961 = LINE('',#962,#963);
#962 = CARTESIAN_POINT('',(30.,-8.25,13.5));
#963 = VECTOR('',#964,1.);
#964 = DIRECTION('',(0.,0.,1.));
#965 = ORIENTED_EDGE('',*,*,#966,.F.);
#966 = EDGE_CURVE('',#967,#959,#969,.T.);
#967 = VERTEX_POINT('',#968);
#968 = CARTESIAN_POINT('',(30.,7.75,8.5));
#969 = LINE('',#970,#971);
#970 = CARTESIAN_POINT('',(30.,7.75,8.5));
#971 = VECTOR('',#972,1.);
#972 = DIRECTION('',(0.,-1.,2.22044604925E-16));
#973 = ORIENTED_EDGE('',*,*,#974,.T.);
#974 = EDGE_CURVE('',#967,#893,#975,.T.);
#975 = LINE('',#976,#977);
#976 = CARTESIAN_POINT('',(30.,7.75,13.5));
#977 = VECTOR('',#978,1.);
#978 = DIRECTION('',(0.,-2.22044604925E-16,-1.));
#979 = ORIENTED_EDGE('',*,*,#892,.T.);
#980 = ORIENTED_EDGE('',*,*,#981,.F.);
#981 = EDGE_CURVE('',#935,#895,#982,.T.);
#982 = LINE('',#983,#984);
#983 = CARTESIAN_POINT('',(30.,11.75,13.5));
#984 = VECTOR('',#985,1.);
#985 = DIRECTION('',(0.,-2.22044604925E-16,-1.));
#986 = PLANE('',#987);
#987 = AXIS2_PLACEMENT_3D('',#988,#989,#990);
#988 = CARTESIAN_POINT('',(30.,1.791666666667,13.541666666667));
#989 = DIRECTION('',(1.,0.,0.));
#990 = DIRECTION('',(0.,0.,1.));
#991 = ADVANCED_FACE('',(#992),#1033,.T.);
#992 = FACE_BOUND('',#993,.T.);
#993 = EDGE_LOOP('',(#994,#995,#1003,#1011,#1019,#1027));
#994 = ORIENTED_EDGE('',*,*,#910,.F.);
#995 = ORIENTED_EDGE('',*,*,#996,.T.);
#996 = EDGE_CURVE('',#911,#997,#999,.T.);
#997 = VERTEX_POINT('',#998);
#998 = CARTESIAN_POINT('',(0.,7.75,8.5));
#999 = LINE('',#1000,#1001);
#1000 = CARTESIAN_POINT('',(0.,7.75,-6.5));
#1001 = VECTOR('',#1002,1.);
#1002 = DIRECTION('',(0.,2.22044604925E-16,1.));
#1003 = ORIENTED_EDGE('',*,*,#1004,.T.);
#1004 = EDGE_CURVE('',#997,#1005,#1007,.T.);
#1005 = VERTEX_POINT('',#1006);
#1006 = CARTESIAN_POINT('',(0.,0.,8.5));
#1007 = LINE('',#1008,#1009);
#1008 = CARTESIAN_POINT('',(0.,7.75,8.5));
#1009 = VECTOR('',#1010,1.);
#1010 = DIRECTION('',(0.,-1.,2.22044604925E-16));
#1011 = ORIENTED_EDGE('',*,*,#1012,.F.);
#1012 = EDGE_CURVE('',#1013,#1005,#1015,.T.);
#1013 = VERTEX_POINT('',#1014);
#1014 = CARTESIAN_POINT('',(0.,0.,13.5));
#1015 = LINE('',#1016,#1017);
#1016 = CARTESIAN_POINT('',(0.,0.,33.5));
#1017 = VECTOR('',#1018,1.);
#1018 = DIRECTION('',(0.,0.,-1.));
#1019 = ORIENTED_EDGE('',*,*,#1020,.F.);
#1020 = EDGE_CURVE('',#1021,#1013,#1023,.T.);
#1021 = VERTEX_POINT('',#1022);
#1022 = CARTESIAN_POINT('',(0.,11.75,13.5));
#1023 = LINE('',#1024,#1025);
#1024 = CARTESIAN_POINT('',(0.,7.75,13.5));
#1025 = VECTOR('',#1026,1.);
#1026 = DIRECTION('',(0.,-1.,2.22044604925E-16));
#1027 = ORIENTED_EDGE('',*,*,#1028,.F.);
#1028 = EDGE_CURVE('',#903,#1021,#1029,.T.);
#1029 = LINE('',#1030,#1031);
#1030 = CARTESIAN_POINT('',(0.,11.75,-6.5));
#1031 = VECTOR('',#1032,1.);
#1032 = DIRECTION('',(0.,2.22044604925E-16,1.));
#1033 = PLANE('',#1034);
#1034 = AXIS2_PLACEMENT_3D('',#1035,#1036,#1037);
#1035 = CARTESIAN_POINT('',(0.,1.791666666667,13.541666666667));
#1036 = DIRECTION('',(-1.,-0.,-0.));
#1037 = DIRECTION('',(0.,0.,-1.));
#1038 = ADVANCED_FACE('',(#1039,#1050,#1061),#1072,.F.);
#1039 = FACE_BOUND('',#1040,.F.);
#1040 = EDGE_LOOP('',(#1041,#1042,#1043,#1044));
#1041 = ORIENTED_EDGE('',*,*,#974,.T.);
#1042 = ORIENTED_EDGE('',*,*,#918,.T.);
#1043 = ORIENTED_EDGE('',*,*,#996,.T.);
#1044 = ORIENTED_EDGE('',*,*,#1045,.T.);
#1045 = EDGE_CURVE('',#997,#967,#1046,.T.);
#1046 = LINE('',#1047,#1048);
#1047 = CARTESIAN_POINT('',(0.,7.75,8.5));
#1048 = VECTOR('',#1049,1.);
#1049 = DIRECTION('',(1.,0.,0.));
#1050 = FACE_BOUND('',#1051,.F.);
#1051 = EDGE_LOOP('',(#1052));
#1052 = ORIENTED_EDGE('',*,*,#1053,.F.);
#1053 = EDGE_CURVE('',#1054,#1054,#1056,.T.);
#1054 = VERTEX_POINT('',#1055);
#1055 = CARTESIAN_POINT('',(6.5,7.75,0.));
#1056 = CIRCLE('',#1057,1.5);
#1057 = AXIS2_PLACEMENT_3D('',#1058,#1059,#1060);
#1058 = CARTESIAN_POINT('',(8.,7.75,0.));
#1059 = DIRECTION('',(0.,1.,-2.22044604925E-16));
#1060 = DIRECTION('',(-1.,0.,0.));
#1061 = FACE_BOUND('',#1062,.F.);
#1062 = EDGE_LOOP('',(#1063));
#1063 = ORIENTED_EDGE('',*,*,#1064,.F.);
#1064 = EDGE_CURVE('',#1065,#1065,#1067,.T.);
#1065 = VERTEX_POINT('',#1066);
#1066 = CARTESIAN_POINT('',(21.5,7.75,0.));
#1067 = CIRCLE('',#1068,1.5);
#1068 = AXIS2_PLACEMENT_3D('',#1069,#1070,#1071);
#1069 = CARTESIAN_POINT('',(23.,7.75,0.));
#1070 = DIRECTION('',(0.,1.,-2.22044604925E-16));
#1071 = DIRECTION('',(-1.,0.,0.));
#1072 = PLANE('',#1073);
#1073 = AXIS2_PLACEMENT_3D('',#1074,#1075,#1076);
#1074 = CARTESIAN_POINT('',(15.067430856145,7.75,3.027984006986));
#1075 = DIRECTION('',(0.,1.,0.));
#1076 = DIRECTION('',(0.,0.,1.));
#1077 = ADVANCED_FACE('',(#1078,#1089,#1100),#1111,.T.);
#1078 = FACE_BOUND('',#1079,.T.);
#1079 = EDGE_LOOP('',(#1080,#1081,#1082,#1088));
#1080 = ORIENTED_EDGE('',*,*,#902,.T.);
#1081 = ORIENTED_EDGE('',*,*,#1028,.T.);
#1082 = ORIENTED_EDGE('',*,*,#1083,.T.);
#1083 = EDGE_CURVE('',#1021,#935,#1084,.T.);
#1084 = LINE('',#1085,#1086);
#1085 = CARTESIAN_POINT('',(0.,11.75,13.5));
#1086 = VECTOR('',#1087,1.);
#1087 = DIRECTION('',(1.,0.,0.));
#1088 = ORIENTED_EDGE('',*,*,#981,.T.);
#1089 = FACE_BOUND('',#1090,.F.);
#1090 = EDGE_LOOP('',(#1091));
#1091 = ORIENTED_EDGE('',*,*,#1092,.T.);
#1092 = EDGE_CURVE('',#1093,#1093,#1095,.T.);
#1093 = VERTEX_POINT('',#1094);
#1094 = CARTESIAN_POINT('',(21.5,11.75,-8.881784197001E-16));
#1095 = CIRCLE('',#1096,1.5);
#1096 = AXIS2_PLACEMENT_3D('',#1097,#1098,#1099);
#1097 = CARTESIAN_POINT('',(23.,11.75,-8.881784197001E-16));
#1098 = DIRECTION('',(0.,1.,-2.22044604925E-16));
#1099 = DIRECTION('',(-1.,0.,0.));
#1100 = FACE_BOUND('',#1101,.F.);
#1101 = EDGE_LOOP('',(#1102));
#1102 = ORIENTED_EDGE('',*,*,#1103,.T.);
#1103 = EDGE_CURVE('',#1104,#1104,#1106,.T.);
#1104 = VERTEX_POINT('',#1105);
#1105 = CARTESIAN_POINT('',(6.5,11.75,-8.881784197001E-16));
#1106 = CIRCLE('',#1107,1.5);
#1107 = AXIS2_PLACEMENT_3D('',#1108,#1109,#1110);
#1108 = CARTESIAN_POINT('',(8.,11.75,-8.881784197001E-16));
#1109 = DIRECTION('',(0.,1.,-2.22044604925E-16));
#1110 = DIRECTION('',(-1.,0.,0.));
#1111 = PLANE('',#1112);
#1112 = AXIS2_PLACEMENT_3D('',#1113,#1114,#1115);
#1113 = CARTESIAN_POINT('',(15.067430856145,11.75,3.027984006986));
#1114 = DIRECTION('',(0.,1.,0.));
#1115 = DIRECTION('',(0.,0.,1.));
#1116 = ADVANCED_FACE('',(#1117),#1128,.T.);
#1117 = FACE_BOUND('',#1118,.T.);
#1118 = EDGE_LOOP('',(#1119,#1120,#1121,#1127));
#1119 = ORIENTED_EDGE('',*,*,#1083,.F.);
#1120 = ORIENTED_EDGE('',*,*,#1020,.T.);
#1121 = ORIENTED_EDGE('',*,*,#1122,.F.);
#1122 = EDGE_CURVE('',#933,#1013,#1123,.T.);
#1123 = LINE('',#1124,#1125);
#1124 = CARTESIAN_POINT('',(30.,0.,13.5));
#1125 = VECTOR('',#1126,1.);
#1126 = DIRECTION('',(-1.,0.,0.));
#1127 = ORIENTED_EDGE('',*,*,#932,.T.);
#1128 = PLANE('',#1129);
#1129 = AXIS2_PLACEMENT_3D('',#1130,#1131,#1132);
#1130 = CARTESIAN_POINT('',(15.,1.75,13.5));
#1131 = DIRECTION('',(0.,0.,1.));
#1132 = DIRECTION('',(1.,0.,0.));
#1133 = ADVANCED_FACE('',(#1134,#1161),#1172,.T.);
#1134 = FACE_BOUND('',#1135,.T.);
#1135 = EDGE_LOOP('',(#1136,#1137,#1138,#1139,#1147,#1155));
#1136 = ORIENTED_EDGE('',*,*,#942,.F.);
#1137 = ORIENTED_EDGE('',*,*,#1122,.T.);
#1138 = ORIENTED_EDGE('',*,*,#1012,.T.);
#1139 = ORIENTED_EDGE('',*,*,#1140,.T.);
#1140 = EDGE_CURVE('',#1005,#1141,#1143,.T.);
#1141 = VERTEX_POINT('',#1142);
#1142 = CARTESIAN_POINT('',(-39.,0.,8.5));
#1143 = LINE('',#1144,#1145);
#1144 = CARTESIAN_POINT('',(0.,0.,8.5));
#1145 = VECTOR('',#1146,1.);
#1146 = DIRECTION('',(-1.,0.,0.));
#1147 = ORIENTED_EDGE('',*,*,#1148,.F.);
#1148 = EDGE_CURVE('',#1149,#1141,#1151,.T.);
#1149 = VERTEX_POINT('',#1150);
#1150 = CARTESIAN_POINT('',(-39.,0.,33.5));
#1151 = LINE('',#1152,#1153);
#1152 = CARTESIAN_POINT('',(-39.,0.,33.5));
#1153 = VECTOR('',#1154,1.);
#1154 = DIRECTION('',(0.,0.,-1.));
#1155 = ORIENTED_EDGE('',*,*,#1156,.F.);
#1156 = EDGE_CURVE('',#943,#1149,#1157,.T.);
#1157 = LINE('',#1158,#1159);
#1158 = CARTESIAN_POINT('',(0.,0.,33.5));
#1159 = VECTOR('',#1160,1.);
#1160 = DIRECTION('',(-1.,0.,0.));
#1161 = FACE_BOUND('',#1162,.T.);
#1162 = EDGE_LOOP('',(#1163));
#1163 = ORIENTED_EDGE('',*,*,#1164,.F.);
#1164 = EDGE_CURVE('',#1165,#1165,#1167,.T.);
#1165 = VERTEX_POINT('',#1166);
#1166 = CARTESIAN_POINT('',(-34.05,4.662936703426E-15,21.));
#1167 = CIRCLE('',#1168,7.05);
#1168 = AXIS2_PLACEMENT_3D('',#1169,#1170,#1171);
#1169 = CARTESIAN_POINT('',(-27.,4.662936703426E-15,21.));
#1170 = DIRECTION('',(0.,1.,-2.22044604925E-16));
#1171 = DIRECTION('',(-1.,0.,0.));
#1172 = PLANE('',#1173);
#1173 = AXIS2_PLACEMENT_3D('',#1174,#1175,#1176);
#1174 = CARTESIAN_POINT('',(-5.297872340426,0.,21.797872340426));
#1175 = DIRECTION('',(0.,1.,0.));
#1176 = DIRECTION('',(0.,0.,1.));
#1177 = ADVANCED_FACE('',(#1178),#1196,.T.);
#1178 = FACE_BOUND('',#1179,.T.);
#1179 = EDGE_LOOP('',(#1180,#1181,#1182,#1190));
#1180 = ORIENTED_EDGE('',*,*,#950,.T.);
#1181 = ORIENTED_EDGE('',*,*,#1156,.T.);
#1182 = ORIENTED_EDGE('',*,*,#1183,.F.);
#1183 = EDGE_CURVE('',#1184,#1149,#1186,.T.);
#1184 = VERTEX_POINT('',#1185);
#1185 = CARTESIAN_POINT('',(-39.,-8.25,33.5));
#1186 = LINE('',#1187,#1188);
#1187 = CARTESIAN_POINT('',(-39.,-8.25,33.5));
#1188 = VECTOR('',#1189,1.);
#1189 = DIRECTION('',(0.,1.,0.));
#1190 = ORIENTED_EDGE('',*,*,#1191,.F.);
#1191 = EDGE_CURVE('',#951,#1184,#1192,.T.);
#1192 = LINE('',#1193,#1194);
#1193 = CARTESIAN_POINT('',(0.,-8.25,33.5));
#1194 = VECTOR('',#1195,1.);
#1195 = DIRECTION('',(-1.,0.,0.));
#1196 = PLANE('',#1197);
#1197 = AXIS2_PLACEMENT_3D('',#1198,#1199,#1200);
#1198 = CARTESIAN_POINT('',(-4.5,-4.125,33.5));
#1199 = DIRECTION('',(0.,0.,1.));
#1200 = DIRECTION('',(1.,0.,0.));
#1201 = ADVANCED_FACE('',(#1202,#1220),#1231,.T.);
#1202 = FACE_BOUND('',#1203,.T.);
#1203 = EDGE_LOOP('',(#1204,#1205,#1206,#1214));
#1204 = ORIENTED_EDGE('',*,*,#958,.T.);
#1205 = ORIENTED_EDGE('',*,*,#1191,.T.);
#1206 = ORIENTED_EDGE('',*,*,#1207,.F.);
#1207 = EDGE_CURVE('',#1208,#1184,#1210,.T.);
#1208 = VERTEX_POINT('',#1209);
#1209 = CARTESIAN_POINT('',(-39.,-8.25,8.5));
#1210 = LINE('',#1211,#1212);
#1211 = CARTESIAN_POINT('',(-39.,-8.25,8.5));
#1212 = VECTOR('',#1213,1.);
#1213 = DIRECTION('',(0.,0.,1.));
#1214 = ORIENTED_EDGE('',*,*,#1215,.F.);
#1215 = EDGE_CURVE('',#959,#1208,#1216,.T.);
#1216 = LINE('',#1217,#1218);
#1217 = CARTESIAN_POINT('',(0.,-8.25,8.5));
#1218 = VECTOR('',#1219,1.);
#1219 = DIRECTION('',(-1.,0.,0.));
#1220 = FACE_BOUND('',#1221,.T.);
#1221 = EDGE_LOOP('',(#1222));
#1222 = ORIENTED_EDGE('',*,*,#1223,.T.);
#1223 = EDGE_CURVE('',#1224,#1224,#1226,.T.);
#1224 = VERTEX_POINT('',#1225);
#1225 = CARTESIAN_POINT('',(-34.05,-8.25,21.));
#1226 = CIRCLE('',#1227,7.05);
#1227 = AXIS2_PLACEMENT_3D('',#1228,#1229,#1230);
#1228 = CARTESIAN_POINT('',(-27.,-8.25,21.));
#1229 = DIRECTION('',(0.,1.,-2.22044604925E-16));
#1230 = DIRECTION('',(-1.,0.,0.));
#1231 = PLANE('',#1232);
#1232 = AXIS2_PLACEMENT_3D('',#1233,#1234,#1235);
#1233 = CARTESIAN_POINT('',(-4.5,-8.25,21.));
#1234 = DIRECTION('',(-0.,-1.,-0.));
#1235 = DIRECTION('',(0.,0.,-1.));
#1236 = ADVANCED_FACE('',(#1237),#1250,.T.);
#1237 = FACE_BOUND('',#1238,.T.);
#1238 = EDGE_LOOP('',(#1239,#1240,#1241,#1242,#1243,#1249));
#1239 = ORIENTED_EDGE('',*,*,#1004,.F.);
#1240 = ORIENTED_EDGE('',*,*,#1045,.T.);
#1241 = ORIENTED_EDGE('',*,*,#966,.T.);
#1242 = ORIENTED_EDGE('',*,*,#1215,.T.);
#1243 = ORIENTED_EDGE('',*,*,#1244,.F.);
#1244 = EDGE_CURVE('',#1141,#1208,#1245,.T.);
#1245 = LINE('',#1246,#1247);
#1246 = CARTESIAN_POINT('',(-39.,0.,8.5));
#1247 = VECTOR('',#1248,1.);
#1248 = DIRECTION('',(0.,-1.,0.));
#1249 = ORIENTED_EDGE('',*,*,#1140,.F.);
#1250 = PLANE('',#1251);
#1251 = AXIS2_PLACEMENT_3D('',#1252,#1253,#1254);
#1252 = CARTESIAN_POINT('',(-2.722058823529,-2.027941176471,8.5));
#1253 = DIRECTION('',(-0.,-0.,-1.));
#1254 = DIRECTION('',(-1.,0.,0.));
#1255 = ADVANCED_FACE('',(#1256),#1267,.F.);
#1256 = FACE_BOUND('',#1257,.T.);
#1257 = EDGE_LOOP('',(#1258,#1264,#1265,#1266));
#1258 = ORIENTED_EDGE('',*,*,#1259,.T.);
#1259 = EDGE_CURVE('',#1054,#1104,#1260,.T.);
#1260 = LINE('',#1261,#1262);
#1261 = CARTESIAN_POINT('',(6.5,7.75,0.));
#1262 = VECTOR('',#1263,1.);
#1263 = DIRECTION('',(0.,1.,-2.22044604925E-16));
#1264 = ORIENTED_EDGE('',*,*,#1103,.T.);
#1265 = ORIENTED_EDGE('',*,*,#1259,.F.);
#1266 = ORIENTED_EDGE('',*,*,#1053,.F.);
#1267 = CYLINDRICAL_SURFACE('',#1268,1.5);
#1268 = AXIS2_PLACEMENT_3D('',#1269,#1270,#1271);
#1269 = CARTESIAN_POINT('',(8.,7.75,0.));
#1270 = DIRECTION('',(0.,-1.,2.22044604925E-16));
#1271 = DIRECTION('',(-1.,0.,0.));
#1272 = ADVANCED_FACE('',(#1273),#1284,.F.);
#1273 = FACE_BOUND('',#1274,.T.);
#1274 = EDGE_LOOP('',(#1275,#1281,#1282,#1283));
#1275 = ORIENTED_EDGE('',*,*,#1276,.T.);
#1276 = EDGE_CURVE('',#1065,#1093,#1277,.T.);
#1277 = LINE('',#1278,#1279);
#1278 = CARTESIAN_POINT('',(21.5,7.75,0.));
#1279 = VECTOR('',#1280,1.);
#1280 = DIRECTION('',(0.,1.,-2.22044604925E-16));
#1281 = ORIENTED_EDGE('',*,*,#1092,.T.);
#1282 = ORIENTED_EDGE('',*,*,#1276,.F.);
#1283 = ORIENTED_EDGE('',*,*,#1064,.F.);
#1284 = CYLINDRICAL_SURFACE('',#1285,1.5);
#1285 = AXIS2_PLACEMENT_3D('',#1286,#1287,#1288);
#1286 = CARTESIAN_POINT('',(23.,7.75,0.));
#1287 = DIRECTION('',(0.,-1.,2.22044604925E-16));
#1288 = DIRECTION('',(-1.,0.,0.));
#1289 = ADVANCED_FACE('',(#1290),#1296,.F.);
#1290 = FACE_BOUND('',#1291,.T.);
#1291 = EDGE_LOOP('',(#1292,#1293,#1294,#1295));
#1292 = ORIENTED_EDGE('',*,*,#1148,.T.);
#1293 = ORIENTED_EDGE('',*,*,#1244,.T.);
#1294 = ORIENTED_EDGE('',*,*,#1207,.T.);
#1295 = ORIENTED_EDGE('',*,*,#1183,.T.);
#1296 = PLANE('',#1297);
#1297 = AXIS2_PLACEMENT_3D('',#1298,#1299,#1300);
#1298 = CARTESIAN_POINT('',(-39.,-4.125,21.));
#1299 = DIRECTION('',(1.,0.,0.));
#1300 = DIRECTION('',(0.,0.,1.));
#1301 = ADVANCED_FACE('',(#1302),#1313,.F.);
#1302 = FACE_BOUND('',#1303,.F.);
#1303 = EDGE_LOOP('',(#1304,#1305,#1311,#1312));
#1304 = ORIENTED_EDGE('',*,*,#1164,.F.);
#1305 = ORIENTED_EDGE('',*,*,#1306,.T.);
#1306 = EDGE_CURVE('',#1165,#1224,#1307,.T.);
#1307 = LINE('',#1308,#1309);
#1308 = CARTESIAN_POINT('',(-34.05,4.662936703426E-15,21.));
#1309 = VECTOR('',#1310,1.);
#1310 = DIRECTION('',(0.,-1.,2.22044604925E-16));
#1311 = ORIENTED_EDGE('',*,*,#1223,.T.);
#1312 = ORIENTED_EDGE('',*,*,#1306,.F.);
#1313 = CYLINDRICAL_SURFACE('',#1314,7.05);
#1314 = AXIS2_PLACEMENT_3D('',#1315,#1316,#1317);
#1315 = CARTESIAN_POINT('',(-27.,4.662936703426E-15,21.));
#1316 = DIRECTION('',(0.,1.,-2.22044604925E-16));
#1317 = DIRECTION('',(-1.,0.,0.));
#1318 = ( GEOMETRIC_REPRESENTATION_CONTEXT(3) 
GLOBAL_UNCERTAINTY_ASSIGNED_CONTEXT((#1322)) 
GLOBAL_UNIT_ASSIGNED_CONTEXT((#1319,#1320,#1321)) REPRESENTATION_CONTEXT
('Context #1','3D Context with UNIT and UNCERTAINTY') );
#1319 = ( LENGTH_UNIT() NAMED_UNIT(*) SI_UNIT(.MILLI.,.METRE.) );
#1320 = ( NAMED_UNIT(*) PLANE_ANGLE_UNIT() SI_UNIT($,.RADIAN.) );
#1321 = ( NAMED_UNIT(*) SI_UNIT($,.STERADIAN.) SOLID_ANGLE_UNIT() );
#1322 = UNCERTAINTY_MEASURE_WITH_UNIT(LENGTH_MEASURE(1.E-07),#1319,
  'distance_accuracy_value','confusion accuracy');
#1323 = CONTEXT_DEPENDENT_SHAPE_REPRESENTATION(#1324,#1326);
#1324 = ( REPRESENTATION_RELATIONSHIP('','',#885,#10) 
REPRESENTATION_RELATIONSHIP_WITH_TRANSFORMATION(#1325) 
SHAPE_REPRESENTATION_RELATIONSHIP() );
#1325 = ITEM_DEFINED_TRANSFORMATION('','',#11,#23);
#1326 = PRODUCT_DEFINITION_SHAPE('Placement','Placement of an item',
  #1327);
#1327 = NEXT_ASSEMBLY_USAGE_OCCURRENCE('6','flipper base','',#5,#880,$);
#1328 = PRODUCT_RELATED_PRODUCT_CATEGORY('part',$,(#882));
#1329 = MECHANICAL_DESIGN_GEOMETRIC_PRESENTATION_REPRESENTATION('',(
    #1330),#1318);
#1330 = STYLED_ITEM('color',(#1331),#886);
#1331 = PRESENTATION_STYLE_ASSIGNMENT((#1332,#1338));
#1332 = SURFACE_STYLE_USAGE(.BOTH.,#1333);
#1333 = SURFACE_SIDE_STYLE('',(#1334));
#1334 = SURFACE_STYLE_FILL_AREA(#1335);
#1335 = FILL_AREA_STYLE('',(#1336));
#1336 = FILL_AREA_STYLE_COLOUR('',#1337);
#1337 = COLOUR_RGB('',0.447058818107,0.474509808674,0.501960817233);
#1338 = CURVE_STYLE('',#1339,POSITIVE_LENGTH_MEASURE(0.1),#1340);
#1339 = DRAUGHTING_PRE_DEFINED_CURVE_FONT('continuous');
#1340 = COLOUR_RGB('',9.803921802644E-02,9.803921802644E-02,
  9.803921802644E-02);
#1341 = MECHANICAL_DESIGN_GEOMETRIC_PRESENTATION_REPRESENTATION('',(
    #1342),#403);
#1342 = STYLED_ITEM('color',(#1343),#41);
#1343 = PRESENTATION_STYLE_ASSIGNMENT((#1344,#1349));
#1344 = SURFACE_STYLE_USAGE(.BOTH.,#1345);
#1345 = SURFACE_SIDE_STYLE('',(#1346));
#1346 = SURFACE_STYLE_FILL_AREA(#1347);
#1347 = FILL_AREA_STYLE('',(#1348));
#1348 = FILL_AREA_STYLE_COLOUR('',#1337);
#1349 = CURVE_STYLE('',#1350,POSITIVE_LENGTH_MEASURE(0.1),#1340);
#1350 = DRAUGHTING_PRE_DEFINED_CURVE_FONT('continuous');
#1351 = MECHANICAL_DESIGN_GEOMETRIC_PRESENTATION_REPRESENTATION('',(
    #1352),#867);
#1352 = STYLED_ITEM('color',(#1353),#422);
#1353 = PRESENTATION_STYLE_ASSIGNMENT((#1354,#1359));
#1354 = SURFACE_STYLE_USAGE(.BOTH.,#1355);
#1355 = SURFACE_SIDE_STYLE('',(#1356));
#1356 = SURFACE_STYLE_FILL_AREA(#1357);
#1357 = FILL_AREA_STYLE('',(#1358));
#1358 = FILL_AREA_STYLE_COLOUR('',#1337);
#1359 = CURVE_STYLE('',#1360,POSITIVE_LENGTH_MEASURE(0.1),#1340);
#1360 = DRAUGHTING_PRE_DEFINED_CURVE_FONT('continuous');
ENDSEC;
END-ISO-10303-21;
